<svg xmlns:xlink="http://www.w3.org/1999/xlink" viewBox="0 0 100 100" fill="currentColor" xmlns="http://www.w3.org/2000/svg" style="width: 22px; height: 22px; stroke: rgb(34, 34, 34);"><path d="M72.5 15C75.6736 14.9995 78.7286 16.2062 81.0452 18.3752C83.3619 20.5442 84.7668 23.5132 84.975 26.68L85 27.5V72.5C85.0005 75.6736 83.7938 78.7286 81.6248 81.0452C79.4558 83.3619 76.4868 84.7668 73.32 84.975L72.5 85H27.5C24.3264 85.0005 21.2714 83.7938 18.9548 81.6248C16.6381 79.4558 15.2332 76.4868 15.025 73.32L15 72.5V27.5C14.9995 24.3264 16.2062 21.2714 18.3752 18.9548C20.5442 16.6381 23.5132 15.2332 26.68 15.025L27.5 15H72.5ZM80 35H20V72.5C20.0001 74.3644 20.6946 76.162 21.9481 77.5421C23.2016 78.9222 24.9242 79.786 26.78 79.965L27.5 80H72.5C74.3636 80 76.1605 79.3062 77.5405 78.0538C78.9206 76.8013 79.7848 75.0799 79.965 73.225L80 72.5V35ZM57.58 41.17C60.25 41.17 62.365 41.88 63.93 43.3C65.49 44.72 66.275 46.64 66.275 49.06C66.275 50.46 65.915 51.695 65.2 52.785C64.468 53.8846 63.4568 54.7699 62.27 55.35C63.755 56.04 64.895 56.985 65.695 58.185C66.495 59.385 66.895 60.735 66.895 62.245C66.895 64.745 66.05 66.73 64.36 68.195C62.665 69.66 60.41 70.395 57.6 70.395C54.775 70.395 52.515 69.655 50.815 68.185C49.115 66.71 48.265 64.735 48.265 62.245C48.265 60.725 48.665 59.355 49.475 58.145C50.285 56.935 51.415 56.005 52.875 55.35C51.698 54.7673 50.6971 53.882 49.975 52.785C49.2582 51.6766 48.8874 50.3798 48.91 49.06C48.91 46.64 49.69 44.72 51.255 43.3C52.815 41.88 54.925 41.17 57.58 41.17ZM42.48 41.465V70H37.755V47.17L30.78 49.55V45.55L41.875 41.465H42.48ZM57.56 57.305C56.18 57.305 55.08 57.735 54.25 58.595C53.425 59.455 53.01 60.595 53.01 62.01C53.01 63.405 53.42 64.52 54.235 65.35C55.045 66.185 56.17 66.6 57.6 66.6C59.035 66.6 60.15 66.2 60.95 65.39C61.75 64.585 62.15 63.455 62.15 62.01C62.15 60.61 61.735 59.47 60.89 58.605C60.05 57.735 58.94 57.305 57.56 57.305ZM57.58 44.98C56.37 44.98 55.415 45.36 54.71 46.125C54.01 46.885 53.66 47.925 53.66 49.24C53.66 50.54 54.01 51.575 54.72 52.34C55.43 53.11 56.39 53.495 57.6 53.495C58.81 53.495 59.775 53.11 60.485 52.345C61.19 51.575 61.545 50.545 61.545 49.24C61.5898 48.1211 61.2072 47.0272 60.475 46.18C60.1103 45.7795 59.6618 45.4643 59.1614 45.2569C58.661 45.0495 58.1211 44.955 57.58 44.98ZM72.5 20H27.5C25.6356 20.0001 23.838 20.6946 22.4579 21.9481C21.0778 23.2016 20.214 24.9242 20.035 26.78L20 27.5V30H80V27.5C80 25.6364 79.3062 23.8395 78.0538 22.4595C76.8013 21.0794 75.0799 20.2152 73.225 20.035L72.5 20Z" stroke="currentColor"></path></svg>