<svg xmlns:xlink="http://www.w3.org/1999/xlink" viewBox="0 0 100 100" fill="#000000" xmlns="http://www.w3.org/2000/svg" style="width: 22px; height: 22px; stroke: rgb(34, 34, 34);"><path d="M81.6038 73.8814C81.6038 75.1068 80.6106 76.1 79.3851 76.1C78.1597 76.1 77.1628 75.1068 77.1628 73.8814C77.1628 72.656 78.1523 71.6628 79.3775 71.6628H79.3851C80.6103 71.6628 81.6038 72.656 81.6038 73.8814ZM20.6235 76.1C21.8489 76.1 22.8421 75.1068 22.8421 73.8814C22.8421 72.656 21.8489 71.6628 20.6235 71.6628H20.6153C19.3899 71.6628 18.4007 72.656 18.4007 73.8814C18.4007 75.1068 19.3981 76.1 20.6235 76.1ZM18.9982 41.8114H14.1779C12.9525 41.8114 11.9593 42.8046 11.9593 44.03C11.9593 45.2554 12.9525 46.2486 14.1779 46.2486H18.9982C20.2236 46.2486 21.2168 45.2554 21.2168 44.03C21.2168 42.8046 20.2236 41.8114 18.9982 41.8114ZM18.9982 49.8285H14.1779C12.9525 49.8285 11.9593 50.8217 11.9593 52.0471C11.9593 53.2725 12.9525 54.2657 14.1779 54.2657H18.9982C20.2236 54.2657 21.2168 53.2725 21.2168 52.0471C21.2168 50.8217 20.2236 49.8285 18.9982 49.8285ZM99.9857 61.4986L99.9768 63.4451C99.9707 64.7679 99.9635 66.2746 99.9635 68.1175C99.9635 71.7055 97.211 74.7903 93.4149 75.7734C92.4873 82.6898 86.5476 88.0409 79.3812 88.0409C71.5739 88.0409 65.2223 81.689 65.2223 73.8814C65.2223 66.0741 71.5739 59.7223 79.3812 59.7223C86.2458 59.7223 91.9851 64.6328 93.2714 71.1252C94.614 70.4877 95.5261 69.3545 95.5261 68.1175C95.5261 66.2662 95.5332 64.7528 95.5394 63.4241L95.5482 61.4782C95.5603 58.8341 95.5771 55.2128 95.5389 53.5131C95.5268 52.975 95.5115 52.4765 95.4903 52.0116H40.733C34.7092 52.0116 32.4933 46.6403 31.7651 44.8753C31.2977 43.7426 31.8371 42.4454 32.9698 41.9783C34.1023 41.5116 35.3997 42.0503 35.8668 43.183C37.1366 46.2612 38.592 47.5744 40.733 47.5744H94.7032C93.7733 45.3787 91.7778 43.6107 87.3936 39.7264C86.5106 38.9442 85.5411 38.0851 84.4761 37.1294C83.7107 36.4426 82.9418 35.708 82.1981 34.9978C81.0942 33.9432 79.9526 32.8524 78.7514 31.8464C77.7143 30.9777 76.7327 30.1511 75.7989 29.365C63.9673 19.4024 60.3965 16.396 49.9819 16.396H9.13575C6.58879 16.3962 4.43722 18.0197 4.43722 19.9415V68.1177C4.43722 68.5296 4.53509 68.9349 4.72811 69.3222C5.11489 70.0989 5.83002 70.7359 6.72486 71.1481C8.00229 64.6444 13.7465 59.7223 20.6188 59.7223C27.6718 59.7223 33.537 64.9059 34.6052 71.6628H58.3431C59.5685 71.6628 60.5617 72.656 60.5617 73.8814C60.5617 75.1068 59.5685 76.1 58.3431 76.1H34.6052C33.537 82.8572 27.6718 88.0409 20.6188 88.0409C13.4574 88.0409 7.52085 82.6967 6.5878 75.7865C4.00583 75.1372 1.86092 73.5183 0.756547 71.3004C0.254647 70.2934 0 69.2223 0 68.1177V19.9415C0 15.5401 4.09827 11.959 9.13575 11.959H49.9824C62.0161 11.959 66.5473 15.7743 78.6574 25.971C79.5883 26.7547 80.5672 27.5788 81.6008 28.445C82.9132 29.544 84.1081 30.6855 85.2637 31.7897C86.0156 32.508 86.7258 33.1864 87.4397 33.8271C88.4972 34.7762 89.4599 35.6291 90.3362 36.4054C97.9665 43.166 99.7796 44.772 99.9751 53.4133C100.015 55.1734 99.998 58.8291 99.9857 61.4986ZM10.8973 73.8814C10.8973 79.2423 15.2584 83.6036 20.6188 83.6036C25.9799 83.6036 30.3415 79.2423 30.3415 73.8814C30.3415 68.5208 25.9799 64.1595 20.6188 64.1595C15.2663 64.1595 10.9101 68.508 10.8973 73.8578C10.8973 73.8654 10.8973 73.8733 10.8973 73.8814ZM89.1037 73.9118C89.1029 73.8822 89.1029 73.8528 89.1037 73.8237C89.0724 68.4897 84.7229 64.1595 79.3815 64.1595C74.0208 64.1595 69.6597 68.5208 69.6597 73.8814C69.6597 79.2423 74.0208 83.6036 79.3815 83.6036C84.732 83.6036 89.0871 79.2589 89.1037 73.9118Z" stroke="#222222"></path></svg>