<svg xmlns="http://www.w3.org/2000/svg" xmlns:xlink="http://www.w3.org/1999/xlink" x="0" y="0" viewBox="0 0 512 512" xml:space="preserve" class="" fill="#000000" style="width: 22px; height: 22px; stroke: rgb(34, 34, 34);"><g transform="matrix(0.9999999999999982,0,0,0.9999999999999982,7.958078640513122e-13,20.00000000000051)" stroke="#222222"><g data-name="13-car" stroke="#222222"><g data-name="linear color" stroke="#222222"><circle cx="120" cy="288" r="12" opacity="1" data-original="#000000" stroke="#222222"></circle><circle cx="408" cy="288" r="12" opacity="1" data-original="#000000" stroke="#222222"></circle><path d="m477.4 193.036-88.329-13.4-84.592-69.616A44.128 44.128 0 0 0 276.53 100H159.38a43.778 43.778 0 0 0-34.36 16.514L74.232 180H40a36.04 36.04 0 0 0-36 36v40a44.049 44.049 0 0 0 44 44h21.413a51.988 51.988 0 0 0 101.174 0h186.826a51.988 51.988 0 0 0 101.174 0H472a36.04 36.04 0 0 0 36-36v-35.37a35.794 35.794 0 0 0-30.6-35.594Zm-188.165-64.48L351.748 180H236v-56h40.53a20.068 20.068 0 0 1 12.705 4.556ZM143.762 131.5a19.9 19.9 0 0 1 15.618-7.5H164v56h-59.033ZM120 316a28 28 0 1 1 28-28 28.032 28.032 0 0 1-28 28Zm288 0a28 28 0 1 1 28-28 28.032 28.032 0 0 1-28 28Zm76-52a12.013 12.013 0 0 1-12 12h-13.413a51.988 51.988 0 0 0-101.174 0H170.587a51.988 51.988 0 0 0-101.174 0H48a20.023 20.023 0 0 1-20-20v-40a12.013 12.013 0 0 1 12-12h136a12 12 0 0 0 12-12v-68h24v68a12 12 0 0 0 12 12h165.684l84.116 12.764A12.081 12.081 0 0 1 484 228.63Z" opacity="1" data-original="#000000" stroke="#222222"></path><path d="M240 212h-16a12 12 0 0 0 0 24h16a12 12 0 0 0 0-24Z" opacity="1" data-original="#000000" stroke="#222222"></path><circle cx="120" cy="288" r="12" opacity="1" data-original="#000000" stroke="#222222"></circle><circle cx="408" cy="288" r="12" opacity="1" data-original="#000000" stroke="#222222"></circle></g></g></g></svg>