<svg xmlns="http://www.w3.org/2000/svg" xmlns:xlink="http://www.w3.org/1999/xlink" x="0" y="0" viewBox="0 0 4335 4335" xml:space="preserve" fill-rule="evenodd" class="" fill="#000000" style="width: 22px; height: 22px; stroke: rgb(34, 34, 34);"><g stroke="#222222"><path d="M302 3731h-11v233c0 92 74 166 166 166h1949c76 0 141-49 160-122 170-625 819-992 1440-822 107 29 210-50 210-160V2006c0-46-15-85-48-118L2533 254c-33-33-71-49-117-49H457c-92 0-166 75-166 166v233c102 0 173 69 173 162v760c0 89-69 162-173 162v959c101 0 173 69 173 162v760c0 89-73 162-162 162zm-129 0c-102 0-173-69-173-162v-760c0-92 71-162 173-162v-959c-102 0-173-70-173-162V766c0-92 71-162 173-162V371c0-157 127-285 284-285h1959c78 0 146 28 201 84l1635 1634c55 55 83 123 83 201v1020c0 188-178 324-360 274-560-152-1142 179-1294 740-34 125-145 210-275 210H457c-157 0-284-128-284-285zm172-162v-760c0-56-70-43-113-43-47 0-113-11-113 43v760c0 67 226 65 226 0zm0-2043V766c0-56-70-43-113-43-47 0-113-12-113 43v760c0 63 226 67 226 0zm3247 539H803c-33 0-60-26-60-59V695c0-33 27-59 60-59h1507c16 0 31 6 43 18l1282 1310c37 38 9 101-43 101zM862 1946h2590L2285 754H862zm807 887H950c-114 0-207-93-207-207v-148c0-33 27-60 60-60h1014c33 0 59 27 59 60v148c0 114-93 207-207 207zm-807-296c0 62-16 177 88 177h719c104 0 89-115 89-177z" opacity="1" data-original="#000000" class="" stroke="#222222"></path></g></svg>