<svg xmlns:xlink="http://www.w3.org/1999/xlink" xmlns="http://www.w3.org/2000/svg" viewBox="0 0 21 16.059" fill="#000000" style="width: 22px; height: 22px;"><path id="Meter-icon" d="M10.5,0a10.611,10.611,0,0,1,5.25,1.388,10.43,10.43,0,0,1,3.843,3.791,10.237,10.237,0,0,1,0,10.358,1.052,1.052,0,0,1-.639.486,1.066,1.066,0,0,1-.8-.1,1.041,1.041,0,0,1-.492-.63,1.027,1.027,0,0,1,.1-.789,8.152,8.152,0,0,0,.267-7.807,8.311,8.311,0,0,0-2.42-2.908,8.485,8.485,0,0,0-10.65.344A8.291,8.291,0,0,0,2.74,7.188,8.187,8.187,0,0,0,3.223,14.5a1.025,1.025,0,0,1-.078,1.153,1.046,1.046,0,0,1-.311.266,1.062,1.062,0,0,1-.794.1,1.048,1.048,0,0,1-.634-.482,10.237,10.237,0,0,1,0-10.358A10.43,10.43,0,0,1,5.25,1.388,10.611,10.611,0,0,1,10.5,0ZM7.518,5.966l1.628,1.6A3.09,3.09,0,0,1,10.5,7.251a3.181,3.181,0,0,1,1.75.524,3.118,3.118,0,0,1,1.16,1.395,3.077,3.077,0,0,1-.683,3.386,3.174,3.174,0,0,1-4.847-.471,3.078,3.078,0,0,1-.531-1.726,2.971,2.971,0,0,1,.315-1.326l-1.628-1.6a1.035,1.035,0,0,1-.23-.337,1.023,1.023,0,0,1,0-.8,1.035,1.035,0,0,1,.23-.337,1.06,1.06,0,0,1,1.481,0ZM10.5,11.394a1.057,1.057,0,0,0,.742-.3,1.026,1.026,0,0,0,0-1.465,1.068,1.068,0,0,0-1.477-.013,1.035,1.035,0,0,0-.234.341,1.035,1.035,0,0,0,.227,1.137A1.057,1.057,0,0,0,10.5,11.394Z"></path></svg>