<svg xmlns:xlink="http://www.w3.org/1999/xlink" viewBox="0 0 100 100" fill="#000000" xmlns="http://www.w3.org/2000/svg" style="width: 22px; height: 22px; stroke: rgb(34, 34, 34);"><g clip-path="url(#clip0_4_77)" stroke="#222222"><path d="M96.856 27.4621C96.3003 27.265 95.5683 26.8929 95.1537 26.5946C95.0631 26.5302 94.9973 26.4397 94.9622 26.3342C93.753 22.7478 90.5757 21.2324 89.2665 20.7466C89.1851 20.7161 89.112 20.6663 89.0544 20.5998C88.9391 20.4692 88.8157 20.3184 88.7293 20.2026C88.6551 20.0992 88.5801 20.0055 88.5027 19.915C87.9327 19.2562 87.3685 18.6722 86.8261 18.1782C86.7315 18.0917 86.6706 17.9735 86.6563 17.8463C86.3681 15.2398 85.9976 14.4937 85.7959 14.0932C85.0425 12.5849 83.5347 11.6478 81.8612 11.6467C81.191 11.6467 80.5983 11.7662 80.0445 12.0126C79.9519 12.0549 79.8457 12.31 79.7419 12.292C79.5288 12.2551 79.3106 12.4712 79.0884 12.4712C79.0884 12.4712 79.0874 12.4712 79.0863 12.4712C76.9393 12.4712 75.1679 13.7 74.7873 15.7255L74.2654 18.3804C74.2378 18.5322 74.1451 18.6026 74.0112 18.6799L72.844 19.3207C72.7606 19.3689 72.6692 19.3839 72.5682 19.3752C72.3955 19.371 72.2121 19.3607 72.0206 19.3607C68.6808 19.3607 66.2767 20.0992 64.6721 21.6277C62.2596 23.9253 56.111 28.6434 54.0401 29.0612C49.704 29.7615 49.1903 32.734 49.1369 33.6288C49.1301 33.7379 49.1271 33.8444 49.1271 33.951C49.1271 34.1934 48.9619 34.4044 48.7268 34.4626C46.4398 35.0292 44.2615 34.987 42.2787 34.3381C38.6198 33.1406 35.0395 32.5348 31.6375 32.5348C29.8373 32.5348 28.0795 32.7169 26.5521 33.0628C26.4183 33.092 26.2794 33.069 26.162 32.9983C24.628 32.0654 22.2639 30.9529 19.7145 30.9529C16.8142 30.9529 14.3131 32.3407 12.6721 34.8618C9.31735 40.0172 7.82387 49.4269 9.19947 56.7513C9.23499 56.9429 9.16342 57.1374 9.01159 57.2587C7.84076 58.2004 7.10281 59.3376 6.75856 60.7385C6.31906 62.521 5.87086 64.9788 5.64241 66.2858C5.62761 66.3683 5.594 66.4465 5.54211 66.5143L4.26994 68.1836C4.23755 68.2268 4.19837 68.2639 4.15519 68.2949C3.21403 68.9597 2.01134 70.129 1.62687 71.928C1.56975 72.1978 1.53319 72.4715 1.51821 72.741C1.51316 72.845 1.47712 72.9429 1.41583 73.0263C0.357134 74.4694 0 75.3482 0 76.5104C0 78.3155 0.96031 79.4498 2.54225 81.1059C4.08606 82.7239 5.33089 83.8693 7.2839 83.8693C8.51585 83.8693 9.69173 83.3588 10.596 82.4326C10.6963 82.3307 10.8321 82.2741 10.9736 82.2741C10.9958 82.2741 11.0179 82.2762 11.04 82.2781C11.2042 82.3008 11.3487 82.3976 11.4306 82.5395C11.549 82.7474 11.6858 82.9522 11.8448 83.1571C11.92 83.255 11.9575 83.3753 11.9535 83.4967L11.9432 83.7901C11.9031 84.9479 12.3416 86.1502 13.1443 86.9817C13.9486 87.8133 15.0731 88.3538 16.2305 88.3538H20.4756C21.6349 88.3538 22.7605 87.8114 23.5648 86.9776C24.369 86.1418 24.8054 84.9686 24.7622 83.8098C24.7325 83.046 24.5693 81.072 23.6785 79.3532C23.6471 79.2915 23.6271 79.2173 23.6219 79.1473C23.5066 77.8301 23.5101 74.5941 23.629 70.9075C23.6342 70.7222 23.7377 70.5512 23.8998 70.4609C27.2421 68.6062 31.8993 65.6102 35.1045 61.872C35.2645 61.6836 35.5332 61.6321 35.7514 61.7484C40.4215 64.2259 46.5803 65.0812 53.9685 64.2349C54.1054 64.2175 54.2456 64.2588 54.3556 64.3452C55.2325 65.041 56.1423 65.5968 57.0563 65.9959C57.1676 66.0443 57.2592 66.1298 57.3145 66.2369C58.0596 67.6881 58.8873 69.3966 59.0593 69.9491C59.3691 71.2141 60.002 72.1055 60.5115 72.8206C61.3029 73.9312 62.4948 75.6028 63.1936 80.5912C63.2749 81.1646 63.4654 81.706 63.7637 82.201C63.9427 82.4984 64.1569 82.7908 64.4008 83.0645C64.476 83.151 64.5222 83.259 64.5304 83.3732C64.6098 84.3941 65.04 85.3689 65.744 86.1171C66.6033 87.0332 68.0267 87.9698 72.0593 87.9698C72.3361 87.9698 72.5564 87.9616 72.6964 87.9522C74.4068 87.837 75.8798 86.7738 76.5364 85.1744C77.8425 81.995 75.1624 78.3023 74.8516 77.8928C74.8105 77.8383 74.7807 77.7764 74.7631 77.7105L74.6981 77.4522C74.4976 76.6834 74.1928 75.5246 73.4713 74.1609C73.2027 73.6524 72.9557 72.9268 72.718 72.2249C72.5729 71.7978 72.4216 71.3562 72.2497 70.9106C72.1798 70.7304 72.2147 70.5256 72.3405 70.3783C72.466 70.2301 72.6616 70.1685 72.8521 70.2056C73.554 70.3567 74.223 70.4917 74.8211 70.6038C74.9198 70.6214 75.0114 70.6675 75.0845 70.7367C76.4864 72.0459 77.8674 73.9211 77.7955 74.9678C77.7706 75.3455 77.7955 75.7263 77.8685 76.0989C78.0095 76.8008 78.3222 77.4708 78.7764 78.0359C78.8453 78.1212 78.8864 78.2274 78.8906 78.3364C78.9359 79.1641 79.2199 79.9565 79.7076 80.6264C80.5124 81.7309 81.8074 82.3894 83.1729 82.3894L83.3366 82.3863L87.3535 82.2329C89.5858 82.1505 91.3974 80.3352 91.4786 78.1038C91.5002 77.5294 91.4775 74.4767 89.0156 70.6583C88.5421 69.9254 88.1789 69.2935 87.827 68.6822C86.9386 67.1413 86.0206 65.5493 84.1341 64.0824C84.0455 64.0135 83.9807 63.9189 83.9497 63.8097C83.6502 62.7496 82.8525 59.9337 79.0814 58.5095C78.2025 58.1769 76.6844 57.1713 74.3058 55.3477C74.1207 55.2058 74.0506 54.9606 74.134 54.7424C75.0922 52.2393 75.4401 49.2931 75.1664 45.9818C74.9442 43.2955 78.2045 39.1584 81.3284 36.1835C81.4941 36.0255 81.7433 35.9924 81.9429 36.1011C82.1877 36.234 82.4254 36.3564 82.649 36.4602C84.0159 37.0983 85.7181 37.3881 87.2043 37.6103C87.2978 37.6242 87.3854 37.6628 87.4596 37.722C87.6561 37.881 87.8898 38.0889 88.0594 38.2561C88.8716 39.0687 89.9492 39.5149 91.0948 39.5149C91.8747 39.5149 95.8725 39.3609 97.9925 36.3078C98.1593 36.0659 98.3178 35.8683 98.4527 35.7006C101.367 32.0572 99.4459 29.4373 98.4867 28.477C98.0458 28.0396 97.4652 27.6767 96.856 27.4621ZM95.5498 33.3123C95.3637 33.5454 95.1413 33.8213 94.9024 34.1671C93.8094 35.7398 91.2064 35.7572 91.0965 35.7572C90.9565 35.7572 90.8218 35.7017 90.7229 35.604C90.1103 34.9926 89.0173 34.0925 88.5068 34.0072C88.3441 33.9809 88.1456 33.9512 87.9201 33.9175C86.8529 33.7607 85.24 33.5223 84.2377 33.0556C83.3361 32.6348 81.9025 31.6915 81.2633 31.2607C79.5363 32.6548 70.8949 39.9777 71.4157 46.2945C71.8931 52.0912 70.0159 54.9831 69.0503 56.0637C69.4653 56.3562 70.0364 56.7987 70.8247 57.4142C72.8028 58.9579 75.7927 61.2922 77.7473 62.0314C79.7543 62.7897 80.0774 63.9457 80.3627 64.9666C80.5593 65.6685 80.7301 66.2747 81.4649 66.7923C83.0191 67.8874 83.6674 69.0092 84.563 70.5645C84.919 71.181 85.3235 71.8817 85.8504 72.7001C87.7742 75.685 87.7187 77.8771 87.7166 77.9697C87.7061 78.2457 87.485 78.4679 87.2102 78.4771L83.1922 78.6284C83.0131 78.6325 82.8504 78.5543 82.7465 78.4123C82.6436 78.2704 82.6178 78.086 82.6775 77.9225C82.9512 77.1672 83.1612 76.355 83.2116 75.8969C82.2822 76.2748 81.6474 75.8208 81.5556 75.3618C81.5462 75.3155 81.5432 75.2692 81.5462 75.2229C81.8046 71.4159 77.3522 67.69 76.5937 67.0849C74.4129 66.807 68.6728 65.3743 66.6916 64.8721L66.7482 67.6426C68.2231 68.8232 68.1799 69.5664 67.6509 70.3064C67.6333 70.3311 67.6117 70.3609 67.5943 70.3877C67.6056 70.4001 67.6199 70.4133 67.6375 70.4288C68.3383 71.0515 68.715 72.1581 69.1515 73.4393C69.4376 74.2812 69.7341 75.1518 70.1416 75.9197C70.6603 76.8995 70.8785 77.7331 71.0535 78.4043C71.2356 79.1 71.3675 79.6053 71.739 80.0244C72.4883 80.8724 73.3929 82.9186 73.0523 83.745C72.9423 84.0105 72.7138 84.1793 72.439 84.1968C72.3567 84.2029 72.2229 84.2073 72.0561 84.2073C71.1689 84.2073 69.0488 84.1413 68.4829 83.5425C68.3387 83.388 68.2645 83.1946 68.2779 82.9948C68.2995 82.6346 68.2274 81.7803 68.17 81.21C67.4247 80.9837 67.0078 80.3002 66.9862 80.2652C66.9492 80.2036 66.9265 80.1378 66.9173 80.0666C66.0888 74.1659 64.5152 71.9592 63.5754 70.6399C63.1701 70.0717 62.85 69.623 62.7193 69.0866C62.4382 67.9308 60.6433 64.4542 59.8251 62.93C57.785 62.5997 56.0283 60.8694 55.4467 60.2396C53.0549 60.6007 50.7761 60.7841 48.6662 60.7841C39.8366 60.7841 35.8 57.6542 34.3606 56.133C32.0258 62.0181 21.8453 67.332 19.9596 68.2757C19.7044 73.8541 19.6741 79.9287 20.0662 80.6367C20.891 81.7081 20.9894 83.6924 20.9976 83.9156C21.0028 84.0588 20.9502 84.0342 20.8515 84.1361C20.7523 84.2379 20.6194 84.1392 20.4759 84.1392H16.2304C16.0872 84.1392 15.9498 84.2463 15.8511 84.1423C15.7519 84.0394 15.6982 83.847 15.7035 83.703L15.7971 80.9776C15.7698 80.9776 15.7426 80.9776 15.7163 80.9776C15.5716 80.9776 15.1313 81.1145 14.8508 80.7594C14.405 80.1944 14.5692 79.3648 15.6032 75.0308C16.5351 71.1302 15.8974 68.6517 15.5558 67.3013C15.3545 66.5068 15.2218 66.0002 15.6066 65.6442C15.8974 65.3744 17.1273 64.1209 18.0484 63.1721C16.502 63.415 15.0785 63.7342 14.8171 63.9563C14.6345 64.1529 14.1668 65.3252 13.7915 66.2679C13.0886 68.0299 12.293 70.0266 11.5056 70.9098C10.4455 72.0994 9.13017 75.4445 8.88012 76.0928C9.01489 77.8776 8.39744 79.263 7.93896 79.7672C7.73367 79.9938 7.5134 80.108 7.2839 80.108C6.55779 80.108 3.76236 77.0378 3.76236 76.5109C3.76236 76.3288 3.76236 76.0827 5.52017 73.8804C5.2454 73.4182 5.24435 73.0033 5.30512 72.7161C5.49509 71.8278 6.42911 71.2732 6.78833 71.0889L9.17248 67.9559C9.29036 67.2498 9.86777 63.8432 10.4105 61.6406C10.7584 60.2264 12.2498 59.4926 13.8718 58.9523C13.7433 58.8886 13.6326 58.7794 13.5807 58.6559C11.4213 52.5507 12.5175 41.9974 15.8248 36.9141C16.7743 35.4558 18.0829 34.7157 19.7138 34.7157C22.2776 34.7157 24.8629 36.5941 25.7008 37.2599C26.7582 36.7845 28.811 36.2966 31.6368 36.2966C34.6425 36.2966 37.8285 36.8406 41.1082 37.9146C42.5434 38.3844 44.0569 38.6228 45.6054 38.6228C50.0031 38.6228 53.7378 36.7027 55.3845 35.7023C52.8341 34.8115 52.8774 34.1056 52.8917 33.8559C52.9412 33.0495 54.1186 32.8596 54.621 32.7788C58.0999 32.2158 65.4874 26.0451 67.268 24.3505C68.1264 23.5328 69.7258 23.1186 72.0209 23.1186C72.7455 23.1186 73.3375 23.1628 73.6184 23.187L77.5984 20.899L78.4845 16.1815C78.5317 15.9283 78.7469 15.757 79.0125 15.7512C79.2698 15.757 79.4859 15.9473 79.5241 16.2015C79.6157 16.8232 79.7423 17.519 79.8636 18.0603C81.1637 15.4112 81.5311 15.4112 81.8593 15.4112C82.1013 15.4112 82.3132 15.546 82.4296 15.7725C82.7907 16.4955 83.0007 19.0295 83.0707 20.0323C84.1266 20.6313 85.4895 22.1854 85.6563 22.3775C86.1419 23.0423 86.9932 23.9857 87.443 24.1092C87.7826 24.2018 90.7756 25.0925 91.492 27.8602C91.8996 29.438 94.6125 30.6751 95.6233 31.0189C95.6996 31.045 95.7696 31.0883 95.8262 31.1449C96.6378 31.9527 96.0853 32.6443 95.5498 33.3123Z" stroke="#222222"></path><path d="M20.8743 44.7063C18.1351 46.7375 16.1944 52.0837 15.5717 55.2568C15.1535 57.3904 14.8848 58.3138 14.6335 58.711C14.8625 58.6429 15.0901 58.5762 15.3144 58.5114C16.4455 58.182 17.5143 57.8712 18.0156 57.4555C19.191 56.4797 20.8079 56.0536 21.6859 55.8828C20.8363 52.7764 20.8363 47.003 20.8743 44.7063Z" stroke="#222222"></path></g><defs><clipPath id="clip0_4_77"><rect width="100" height="100" fill="white"></rect></clipPath></defs></svg>