<svg xmlns:xlink="http://www.w3.org/1999/xlink" viewBox="0 0 15 21" fill="#000000" xmlns="http://www.w3.org/2000/svg" style="width: 22px; height: 22px;"><path d="M7.5 0C3.35357 0 0 3.2865 0 7.35C0 12.8625 7.5 21 7.5 21C7.5 21 15 12.8625 15 7.35C15 3.2865 11.6464 0 7.5 0ZM2.14286 7.35C2.14286 4.452 4.54286 2.1 7.5 2.1C10.4571 2.1 12.8571 4.452 12.8571 7.35C12.8571 10.374 9.77143 14.8995 7.5 17.724C5.27143 14.9205 2.14286 10.3425 2.14286 7.35Z"></path><path d="M7.5 10C8.88071 10 10 8.88071 10 7.5C10 6.11929 8.88071 5 7.5 5C6.11929 5 5 6.11929 5 7.5C5 8.88071 6.11929 10 7.5 10Z"></path></svg>