<svg xmlns:xlink="http://www.w3.org/1999/xlink" viewBox="0 0 100 100" fill="#000000" xmlns="http://www.w3.org/2000/svg" style="width: 22px; height: 22px; stroke: rgb(34, 34, 34);"><path d="M81.3514 10.8328H81.2914H70.8328V7.43991C70.8328 5.86276 69.5528 4.58276 67.9757 4.58276C66.3985 4.58276 65.1185 5.86276 65.1185 7.43991V10.8328H59.4042V7.43991C59.4042 5.86276 58.1242 4.58276 56.5471 4.58276C54.9699 4.58276 53.6899 5.86276 53.6899 7.43991V10.8328H46.5471V7.43991C46.5471 5.86276 45.2671 4.58276 43.6899 4.58276C42.1128 4.58276 40.8328 5.86276 40.8328 7.43991V10.8328H33.6899V7.43991C33.6899 5.86276 32.4099 4.58276 30.8328 4.58276C29.2557 4.58276 27.9757 5.86276 27.9757 7.43991V10.8328H19.8642C16.7085 10.8328 13.6899 13.7642 13.6899 16.9199V89.7771C13.6899 92.9328 15.2799 95.1171 18.4357 95.1171H81.2928C84.4485 95.1171 86.5485 92.9328 86.5485 89.7771V16.9199C86.5471 13.7642 84.5071 10.8328 81.3514 10.8328ZM27.9757 16.547V20.297C27.9757 21.8742 29.2557 23.1542 30.8328 23.1542C32.4099 23.1542 33.6899 21.8742 33.6899 20.297V16.547H40.8328V20.297C40.8328 21.8742 42.1128 23.1542 43.6899 23.1542C45.2671 23.1542 46.5471 21.8742 46.5471 20.297V16.547H53.6899V20.297C53.6899 21.8742 54.9699 23.1542 56.5471 23.1542C58.1242 23.1542 59.4042 21.8742 59.4042 20.297V16.547H65.1185V20.297C65.1185 21.8742 66.3985 23.1542 67.9757 23.1542C69.5528 23.1542 70.8328 21.8742 70.8328 20.297V16.547H80.8328V30.8328H19.4042V16.547H27.9757ZM19.4042 89.4042V33.6899H80.8328V89.4042H19.4042Z" stroke="#222222"></path><path d="M76.5471 71.7256C75.7586 71.7256 75.1186 72.3642 75.1186 73.1542V83.6899H67.0243C66.2357 83.6899 65.5957 84.3284 65.5957 85.1184C65.5957 85.9084 66.2357 86.547 67.0243 86.547H76.5486C77.3371 86.547 77.9757 85.9084 77.9757 85.1184V73.1542C77.9757 72.3642 77.3357 71.7256 76.5471 71.7256Z" stroke="#222222"></path><path d="M61.3099 83.6899H58.4527C57.6642 83.6899 57.0242 84.3285 57.0242 85.1185C57.0242 85.9085 57.6642 86.5471 58.4527 86.5471H61.3099C62.0985 86.5471 62.7385 85.9085 62.7385 85.1185C62.7385 84.3285 62.0985 83.6899 61.3099 83.6899Z" stroke="#222222"></path><path d="M31.3099 45.1184H42.7385C43.5271 45.1184 44.1671 44.4798 44.1671 43.6898C44.1671 42.8998 43.5271 42.2612 42.7385 42.2612H31.3099C30.5213 42.2612 29.8813 42.8998 29.8813 43.6898C29.8813 44.4798 30.5213 45.1184 31.3099 45.1184Z" stroke="#222222"></path><path d="M48.4527 45.1184H69.8813C70.6699 45.1184 71.3099 44.4798 71.3099 43.6898C71.3099 42.8998 70.6699 42.2612 69.8813 42.2612H48.4527C47.6642 42.2612 47.0242 42.8998 47.0242 43.6898C47.0242 44.4798 47.6642 45.1184 48.4527 45.1184Z" stroke="#222222"></path><path d="M59.8813 72.2613C59.8813 71.4713 59.2413 70.8328 58.4527 70.8328H48.4527C47.6642 70.8328 47.0242 71.4713 47.0242 72.2613C47.0242 73.0513 47.6642 73.6899 48.4527 73.6899H58.4527C59.2413 73.6899 59.8813 73.0513 59.8813 72.2613Z" stroke="#222222"></path><path d="M69.8813 63.6899H58.4527C57.6642 63.6899 57.0242 64.3285 57.0242 65.1185C57.0242 65.9085 57.6642 66.5471 58.4527 66.5471H69.8813C70.6699 66.5471 71.3099 65.9085 71.3099 65.1185C71.3099 64.3285 70.6699 63.6899 69.8813 63.6899Z" stroke="#222222"></path><path d="M31.3099 66.5471H52.7385C53.5271 66.5471 54.1671 65.9085 54.1671 65.1185C54.1671 64.3285 53.5271 63.6899 52.7385 63.6899H31.3099C30.5213 63.6899 29.8813 64.3285 29.8813 65.1185C29.8813 65.9085 30.5213 66.5471 31.3099 66.5471Z" stroke="#222222"></path><path d="M41.3099 70.8328H31.3099C30.5213 70.8328 29.8813 71.4713 29.8813 72.2613C29.8813 73.0513 30.5213 73.6899 31.3099 73.6899H41.3099C42.0985 73.6899 42.7385 73.0513 42.7385 72.2613C42.7385 71.4713 42.0985 70.8328 41.3099 70.8328Z" stroke="#222222"></path><path d="M31.3099 52.2614H39.8813C40.6699 52.2614 41.3099 51.6229 41.3099 50.8329C41.3099 50.0429 40.6699 49.4043 39.8813 49.4043H31.3099C30.5213 49.4043 29.8813 50.0429 29.8813 50.8329C29.8813 51.6229 30.5213 52.2614 31.3099 52.2614Z" stroke="#222222"></path><path d="M45.5957 52.2614H69.8814C70.67 52.2614 71.31 51.6229 71.31 50.8329C71.31 50.0429 70.67 49.4043 69.8814 49.4043H45.5957C44.8071 49.4043 44.1671 50.0429 44.1671 50.8329C44.1671 51.6229 44.8071 52.2614 45.5957 52.2614Z" stroke="#222222"></path><path d="M31.3099 59.4043H49.8813C50.6699 59.4043 51.3099 58.7657 51.3099 57.9757C51.3099 57.1857 50.6699 56.5471 49.8813 56.5471H31.3099C30.5213 56.5471 29.8813 57.1857 29.8813 57.9757C29.8813 58.7657 30.5213 59.4043 31.3099 59.4043Z" stroke="#222222"></path><path d="M69.8814 56.5471H55.5957C54.8071 56.5471 54.1671 57.1857 54.1671 57.9757C54.1671 58.7657 54.8071 59.4043 55.5957 59.4043H69.8814C70.67 59.4043 71.31 58.7657 71.31 57.9757C71.31 57.1857 70.67 56.5471 69.8814 56.5471Z" stroke="#222222"></path></svg>