<svg xmlns:xlink="http://www.w3.org/1999/xlink" viewBox="0 0 73 73" fill="#000000" xmlns="http://www.w3.org/2000/svg" style="width: 22px; height: 22px; stroke: rgb(34, 34, 34);"><path d="M11.8 54C11.6 53.9333 11.4167 53.85 11.25 53.75C11.1167 53.65 10.9833 53.4667 10.85 53.2C10.1167 51.8333 9.36667 50.1167 8.6 48.05C7.83333 45.9833 7.08333 43.75 6.35 41.35C5.61667 38.95 4.93333 36.55 4.3 34.15C3.66667 31.7167 3.11667 29.4333 2.65 27.3C2.21667 25.1667 1.88333 23.35 1.65 21.85C1.58333 21.2833 1.56667 20.9 1.6 20.7C1.66667 20.4667 1.83333 20.35 2.1 20.35H6.5C6.73333 20.35 6.9 20.4167 7 20.55C7.1 20.65 7.18333 20.9667 7.25 21.5C7.45 22.5667 7.66667 23.7167 7.9 24.95C8.16667 26.1833 8.45 27.45 8.75 28.75C9.05 30.0167 9.38333 31.3 9.75 32.6C10.1167 33.9 10.4833 35.1667 10.85 36.4C11.2167 37.6 11.5667 38.75 11.9 39.85C12.1667 40.65 12.45 41.5833 12.75 42.65C13.05 43.6833 13.3333 44.6167 13.6 45.45C13.7 45.6833 13.7833 45.8167 13.85 45.85C13.9167 45.85 14 45.7333 14.1 45.5C14.4333 44.7 14.7333 43.7667 15 42.7C15.3 41.6 15.5833 40.65 15.85 39.85C16.1833 38.7833 16.5333 37.6333 16.9 36.4C17.2667 35.1667 17.6167 33.9 17.95 32.6C18.3167 31.3 18.6667 30 19 28.7C19.3333 27.4 19.6167 26.15 19.85 24.95C20.1167 23.7167 20.3333 22.5667 20.5 21.5C20.6 21 20.6833 20.6833 20.75 20.55C20.85 20.4167 21.0167 20.35 21.25 20.35H25.7C25.9667 20.35 26.1167 20.4667 26.15 20.7C26.1833 20.9 26.1667 21.2833 26.1 21.85C25.9 23.3167 25.5667 25.1167 25.1 27.25C24.6333 29.35 24.0833 31.6167 23.45 34.05C22.8167 36.4833 22.1333 38.9167 21.4 41.35C20.6667 43.75 19.9167 45.9833 19.15 48.05C18.4167 50.1167 17.7 51.8333 17 53.2C16.8333 53.4667 16.6667 53.65 16.5 53.75C16.3333 53.85 16.1667 53.9333 16 54H11.8ZM36.8844 53.45C36.8844 53.8167 36.6844 54 36.2844 54H31.7844C31.4177 54 31.2344 53.8167 31.2344 53.45V20.9C31.2344 20.5333 31.4177 20.35 31.7844 20.35H36.2844C36.6844 20.35 36.8844 20.5333 36.8844 20.9V53.45ZM62.732 42.05C62.7987 42.1833 62.9154 42.25 63.082 42.25C63.2487 42.25 63.332 42.15 63.332 41.95C63.3987 40.8833 63.432 39.7 63.432 38.4C63.432 37.0667 63.4154 35.6667 63.382 34.2C63.382 32.7333 63.3487 31.2333 63.282 29.7C63.2487 28.1667 63.182 26.6667 63.082 25.2C62.982 23.7 62.8487 22.2833 62.682 20.95C62.6487 20.55 62.7487 20.35 62.982 20.35H67.532C67.732 20.35 67.8987 20.4 68.032 20.5C68.1987 20.6 68.2987 20.7333 68.332 20.9C68.5654 22.1333 68.7487 23.6333 68.882 25.4C69.0154 27.1333 69.0987 29.0333 69.132 31.1C69.1654 33.1667 69.1654 35.2833 69.132 37.45C69.132 39.5833 69.082 41.6667 68.982 43.7C68.9154 45.7333 68.832 47.6 68.732 49.3C68.632 50.9667 68.5154 52.35 68.382 53.45C68.3487 53.7167 68.2487 53.8833 68.082 53.95C67.9154 53.9833 67.732 54 67.532 54H64.582C64.3487 54 64.1154 53.7667 63.882 53.3L49.882 32.1C49.8487 31.9667 49.7654 31.9 49.632 31.9C49.4987 31.9 49.432 31.9833 49.432 32.15C49.3987 33.85 49.3654 35.5333 49.332 37.2C49.332 38.8333 49.332 40.4333 49.332 42C49.3654 43.5333 49.3987 45 49.432 46.4C49.4987 47.8 49.5654 49.1 49.632 50.3C49.732 51.4667 49.8487 52.5167 49.982 53.45C49.982 53.8167 49.8654 54 49.632 54H45.132C44.9654 54 44.782 53.9833 44.582 53.95C44.4154 53.8833 44.3154 53.7167 44.282 53.45C44.1487 52.3167 44.032 50.9 43.932 49.2C43.832 47.5 43.7487 45.6333 43.682 43.6C43.6154 41.5667 43.582 39.4833 43.582 37.35C43.582 35.1833 43.5987 33.0833 43.632 31.05C43.6987 28.9833 43.782 27.0833 43.882 25.35C44.0154 23.5833 44.1987 22.1 44.432 20.9C44.4654 20.7333 44.5654 20.6 44.732 20.5C44.8987 20.4 45.0654 20.35 45.232 20.35H48.082C48.3154 20.35 48.4987 20.4833 48.632 20.75L62.732 42.05Z" stroke="#222222"></path></svg>