<svg viewBox="0 0 125 110" fill="none" xmlns="http://www.w3.org/2000/svg">
<path d="M89.4833 73.4C88.9146 72.4469 83.301 70.0088 83.301 70.0088C84.2774 69.5017 84.9447 69.3969 84.9447 67.3C84.9447 65.0125 84.9333 64.25 83.4167 64.25H78.2714C78.2505 64.2042 78.2278 64.1566 78.2069 64.1089C74.8854 56.8156 74.4399 54.9723 69.4861 52.4903C62.8412 49.1677 50.3837 49 45.5 49C40.6163 49 28.1588 49.1677 21.5196 52.4903C16.5601 54.9685 16.6833 56.2437 12.7988 64.1089C12.7988 64.1299 12.759 64.1852 12.7229 64.25H7.57196C6.06667 64.25 6.05529 65.0125 6.05529 67.3C6.05529 69.3969 6.72263 69.5017 7.69898 70.0088C7.69898 70.0088 2.275 72.6375 1.51667 73.4C0.758333 74.1625 0 79.5 0 88.65C0 97.8 0.758333 106.95 0.758333 106.95H3.02196C3.02196 109.619 3.4125 110 4.55 110H19.7167C20.8542 110 21.2333 109.619 21.2333 106.95H69.7667C69.7667 109.619 70.1458 110 71.2833 110H86.8292C87.5875 110 87.9667 109.428 87.9667 106.95H90.2417C90.2417 106.95 91 97.6094 91 88.65C91 79.6906 90.0521 74.3531 89.4833 73.4ZM20.7139 81.9667C17.261 82.3462 13.7905 82.541 10.3171 82.55C6.44583 82.55 6.31313 82.7997 6.04012 80.3692C5.93743 79.2568 5.96989 78.1359 6.13681 77.0314L6.25625 76.45H6.825C9.1 76.45 11.2366 76.5472 15.2709 77.7424C17.3228 78.3615 19.2528 79.3328 20.9755 80.6132C21.8021 81.2156 21.9917 81.7875 21.9917 81.7875L20.7139 81.9667ZM67.5713 95.6917L66.7333 97.8H24.2667C24.2667 97.8 24.3406 97.6837 23.3188 95.6688C22.5604 94.1781 23.5083 93.225 25.0079 92.6836C27.9124 91.6314 36.4 88.65 45.5 88.65C54.6 88.65 63.2564 91.2196 66.0698 92.6836C67.1125 93.225 68.4074 93.6063 67.5713 95.7031V95.6917ZM18.8484 69.6657C18.236 69.7012 17.6222 69.7056 17.0094 69.679C17.5042 68.7945 17.7791 67.809 18.2626 66.7796C19.7792 63.539 21.5139 59.8713 24.6022 58.3254C29.065 56.0912 38.3148 55.0847 45.5 55.0847C52.6852 55.0847 61.935 56.0836 66.3978 58.3254C69.4861 59.8713 71.2132 63.5409 72.7374 66.7796C73.2247 67.8185 73.4958 68.8117 74.0039 69.7019C73.6247 69.7228 73.1886 69.7019 72.1478 69.6657H18.8484ZM84.7703 80.3616C84.3646 82.7406 84.7437 82.55 80.6829 82.55C77.2095 82.541 73.739 82.3462 70.2861 81.9667C69.7458 81.8695 69.5922 80.9526 70.0245 80.6132C71.7385 79.3185 73.6711 78.346 75.7291 77.7424C79.7634 76.5472 82.0346 76.3871 84.2774 76.4672C84.428 76.4729 84.5712 76.5345 84.6794 76.6401C84.7875 76.7457 84.853 76.8878 84.8632 77.039C84.9703 78.1487 84.9391 79.2674 84.7703 80.3692V80.3616Z" fill="#ED6C30"/>
<path d="M77.4359 42.9474V5.36842H96.4615V24.1579H115.487V26.8421C117.39 26.8421 119.211 27.1911 120.923 27.7816V16.1053L104.615 0H77.4359C74.419 0 72 2.38895 72 5.36842V42.9474C72 44.3712 72.5727 45.7366 73.5921 46.7434C74.6116 47.7502 75.9942 48.3158 77.4359 48.3158H100.131C99.5328 46.6247 99.1795 44.8263 99.1795 42.9474H77.4359ZM101.897 4.02632L116.846 18.7895H101.897V4.02632ZM125 38.25L112.09 51L104.615 42.9474L107.768 39.8337L112.09 44.1016L121.847 34.4653L125 38.25Z" fill="#ED6C30"/>
</svg>
