<?xml version="1.0" encoding="utf-8"?><!-- Uploaded to: SVG Repo, www.svgrepo.com, Generator: SVG Repo Mixer Tools -->
<svg fill="#000000" width="800px" height="800px" viewBox="0 0 24 24" id="car-door-4" data-name="Flat Color" xmlns="http://www.w3.org/2000/svg" class="icon flat-color"><path id="primary" d="M19,2H12.41A2,2,0,0,0,11,2.59L3.59,10A2,2,0,0,0,3,11.41V20a2,2,0,0,0,2,2H19a2,2,0,0,0,2-2V4A2,2,0,0,0,19,2Zm0,8H6.41l6-6H19Z" style="fill: rgb(0, 0, 0);"></path><path id="secondary" d="M18,14H15a1,1,0,0,1,0-2h3a1,1,0,0,1,0,2Z" style="fill: rgb(44, 169, 188);"></path></svg>