<svg  viewBox="0 0 99 90" fill="none" xmlns="http://www.w3.org/2000/svg">
<path d="M37.0267 31.0231C28.2913 30.8931 16.1569 31.0832 13.6586 37.886L7.52052 52.4862C7.24828 52.1705 6.89124 51.942 6.49301 51.8286L4.02172 51.1238C3.74998 51.0457 3.46569 51.0227 3.18518 51.0563C2.90468 51.0899 2.63347 51.1792 2.38713 51.3193C2.14078 51.4594 1.92416 51.6474 1.74969 51.8726C1.57521 52.0977 1.44633 52.3556 1.37043 52.6314L0.0811592 57.2721C0.00421999 57.5475 -0.0183179 57.8356 0.0148385 58.1198C0.0479949 58.4041 0.136193 58.6789 0.274373 58.9285C0.412553 59.1781 0.597996 59.3977 0.820062 59.5745C1.04213 59.7513 1.29645 59.8819 1.56843 59.9588L4.04047 60.6644C4.12297 60.6872 4.20547 60.6948 4.28797 60.7085C3.81547 61.9021 3.52146 63.2143 3.52146 63.9951V80.9642C3.52146 81.834 3.88147 82.2369 4.45298 82.4255V86.946C4.45209 87.3473 4.52941 87.7448 4.6805 88.1158C4.83159 88.4867 5.05348 88.8237 5.33342 89.1075C5.61336 89.3913 5.94584 89.6162 6.31177 89.7694C6.6777 89.9225 7.06987 90.0009 7.46577 90H15.5486C15.9445 90.0009 16.3367 89.9225 16.7026 89.7694C17.0686 89.6162 17.4011 89.3913 17.681 89.1075C17.9609 88.8237 18.1828 88.4867 18.3339 88.1158C18.485 87.7448 18.5623 87.3473 18.5614 86.946V82.5912H56.4393V86.946C56.4386 87.3473 56.516 87.7448 56.6673 88.1157C56.8185 88.4866 57.0404 88.8236 57.3204 89.1073C57.6004 89.3911 57.9329 89.616 58.2988 89.7692C58.6647 89.9224 59.0569 90.0008 59.4528 90H67.5342C67.9301 90.0009 68.3224 89.9225 68.6884 89.7694C69.0544 89.6162 69.387 89.3913 69.6671 89.1076C69.9471 88.8239 70.1691 88.4868 70.3204 88.1159C70.4717 87.745 70.5492 87.3474 70.5485 86.946V82.4262C71.1207 82.2377 71.4785 81.8347 71.4785 80.965V63.9958C71.4785 63.2151 71.1837 61.9028 70.712 60.7092C70.7945 60.6963 70.877 60.6887 70.9595 60.6651L73.4323 59.9596C73.7042 59.8826 73.9584 59.7519 74.1804 59.5751C74.4024 59.3982 74.5877 59.1787 74.7259 58.9291C74.864 58.6795 74.9521 58.4047 74.9852 58.1204C75.0183 57.8362 74.9957 57.5482 74.9188 57.2728L73.631 52.6322C73.555 52.3563 73.4261 52.0984 73.2515 51.8733C73.077 51.6481 72.8603 51.4601 72.6139 51.32C72.3675 51.1799 72.0962 51.0906 71.8157 51.057C71.5351 51.0235 71.2508 51.0464 70.979 51.1245L68.5077 51.8293C68.1095 51.9432 67.7523 52.1716 67.4794 52.4869L61.3413 37.8868C58.6638 30.9805 45.7613 31.1539 37.026 31.0239M62.0441 53.4091C62.1896 53.8471 61.7546 54.139 61.2993 54.1656C61.2993 54.1656 59.8113 54.2933 57.7593 54.4614C56.1978 50.7634 52.5692 48.1572 48.3654 48.1572C43.7521 48.1572 39.8355 51.2971 38.5792 55.5729C38.2312 55.5774 37.827 55.5926 37.5037 55.5926C29.5559 55.5926 13.6991 54.1656 13.6991 54.1656C13.2446 54.1382 12.8089 53.8463 12.9544 53.4091C19.0609 34.5386 19.2432 35.9572 37.1617 36.1557C55.0795 36.3533 55.1837 35.0054 62.0441 53.4091ZM48.3654 51.7236C49.4717 51.7198 50.5615 51.9951 51.5366 52.5248C52.5117 53.0545 53.3413 53.8219 53.9507 54.7579C50.3619 55.0278 46.2316 55.3037 42.3825 55.4641C42.9364 54.3371 43.7902 53.3895 44.8474 52.7285C45.9047 52.0675 47.1232 51.7195 48.3654 51.7236ZM7.05476 57.8468C7.10876 57.9282 7.16126 58.0095 7.22127 58.0878H6.98876L7.05476 57.8468ZM11.0253 62.5863C12.5973 62.5605 21.0365 65.4396 21.0365 65.4396C22.0902 65.7407 23.018 67.7599 23.0128 68.8699C22.997 72.6081 13.4809 71.3104 9.61755 71.3256C9.35795 71.3261 9.1008 71.2746 8.86085 71.1742C8.6209 71.0737 8.40288 70.9263 8.21928 70.7402C8.03567 70.5542 7.8901 70.3332 7.79092 70.09C7.69173 69.8468 7.64088 69.5862 7.64127 69.323V64.5904C7.64127 63.4804 9.4533 62.6137 11.0253 62.5863ZM63.9746 62.5863C65.5466 62.6129 67.3587 63.4804 67.3587 64.5904V69.323C67.3592 69.5863 67.3084 69.847 67.2092 70.0903C67.1101 70.3335 66.9645 70.5546 66.7809 70.7407C66.5973 70.9268 66.3793 71.0744 66.1393 71.1749C65.8993 71.2754 65.6421 71.3268 65.3824 71.3263C61.5198 71.3111 52.0029 72.6081 51.9872 68.8699C51.9819 67.7599 52.9097 65.7407 53.9635 65.4396C53.9635 65.4396 62.4026 62.5605 63.9746 62.5863Z" fill="#ED6C30"/>
<path d="M97.4486 38L83.6885 23.4772C82.5898 24.4652 81.3263 25.2297 79.898 25.7709C78.4697 26.312 77.0341 26.5826 75.5911 26.5826C72.0723 26.5826 69.0941 25.297 66.6565 22.7258C64.2188 20.153 63 17.0105 63 13.2983C63 9.586 64.2174 6.44195 66.6521 3.8661C69.0883 1.2887 72.065 0 75.5823 0C79.1011 0 82.0808 1.28638 84.5213 3.85914C86.9619 6.4319 88.1822 9.57595 88.1822 13.2913C88.1822 14.9024 87.9119 16.4616 87.3714 17.9691C86.8293 19.4766 86.1188 20.7661 85.2399 21.8375L99 36.358L97.4486 38ZM75.5911 24.2611C78.5063 24.2611 80.9681 23.202 82.9766 21.0838C84.9835 18.9656 85.987 16.3673 85.987 13.289C85.987 10.2122 84.9835 7.61469 82.9766 5.49649C80.9696 3.37829 78.5085 2.31919 75.5933 2.31919C72.6781 2.31919 70.2163 3.37829 68.2078 5.49649C66.2009 7.61469 65.1974 10.2122 65.1974 13.289C65.1974 16.3658 66.2009 18.9633 68.2078 21.0815C70.2148 23.1997 72.6759 24.2611 75.5911 24.2611Z" fill="#ED6C30"/>
</svg>
