<svg viewBox="0 0 95 98" fill="none" xmlns="http://www.w3.org/2000/svg">
<path d="M47.5 0C60.0978 0 72.1796 5.16249 81.0876 14.3518C89.9956 23.541 95 36.0044 95 49C95 61.9956 89.9956 74.459 81.0876 83.6482C72.1796 92.8375 60.0978 98 47.5 98C34.9022 98 22.8204 92.8375 13.9124 83.6482C5.00445 74.459 0 61.9956 0 49C0 36.0044 5.00445 23.541 13.9124 14.3518C22.8204 5.16249 34.9022 0 47.5 0ZM8.90625 49C8.90625 59.5589 12.9724 69.6854 20.2101 77.1517C27.4478 84.618 37.2643 88.8125 47.5 88.8125C57.7357 88.8125 67.5522 84.618 74.7899 77.1517C82.0276 69.6854 86.0938 59.5589 86.0938 49C86.0938 38.4411 82.0276 28.3146 74.7899 20.8483C67.5522 13.382 57.7357 9.1875 47.5 9.1875C37.2643 9.1875 27.4478 13.382 20.2101 20.8483C12.9724 28.3146 8.90625 38.4411 8.90625 49ZM50.4688 29.0938V47.4198L62.51 52.3932C63.5711 52.8704 64.4104 53.7551 64.85 54.8597C65.2896 55.9644 65.2949 57.2022 64.8649 58.3109C64.4349 59.4195 63.6032 60.3119 62.5463 60.7988C61.4893 61.2857 60.2901 61.3289 59.2028 60.9193L44.3591 54.7943C43.534 54.4523 42.8269 53.8637 42.3286 53.1041C41.8303 52.3444 41.5635 51.4485 41.5625 50.5312V29.0938C41.5625 27.8754 42.0317 26.707 42.8668 25.8455C43.7019 24.984 44.8346 24.5 46.0156 24.5C47.1967 24.5 48.3293 24.984 49.1645 25.8455C49.9996 26.707 50.4688 27.8754 50.4688 29.0938Z" fill="#ED6C30"/>
</svg>
