<svg viewBox="0 0 88 88" fill="none" xmlns="http://www.w3.org/2000/svg">
<g clip-path="url(#clip0_194_1438)">
<path d="M18.9709 16C15.5308 16 12.2316 17.3609 9.79909 19.7832C7.36657 22.2055 6 25.491 6 28.9167V31.5H89V28.9167C89 25.491 87.6334 22.2055 85.2009 19.7832C82.7684 17.3609 79.4692 16 76.0291 16H18.9709ZM6 65.0833V36.6667H89V65.0833C89 68.509 87.6334 71.7945 85.2009 74.2168C82.7684 76.6391 79.4692 78 76.0291 78H18.9744C15.5343 78 12.2351 76.6391 9.80255 74.2168C7.37003 71.7945 6.00346 68.509 6.00346 65.0833M62.1934 55.6111C61.5054 55.6111 60.8456 55.8833 60.3591 56.3677C59.8726 56.8522 59.5993 57.5093 59.5993 58.1944C59.5993 58.8796 59.8726 59.5367 60.3591 60.0211C60.8456 60.5056 61.5054 60.7778 62.1934 60.7778H74.2996C74.9877 60.7778 75.6475 60.5056 76.134 60.0211C76.6205 59.5367 76.8938 58.8796 76.8938 58.1944C76.8938 57.5093 76.6205 56.8522 76.134 56.3677C75.6475 55.8833 74.9877 55.6111 74.2996 55.6111H62.1934Z" fill="#ED6C30"/>
</g>
<defs>
<clipPath id="clip0_194_1438">
<rect width="88" height="88" fill="white"/>
</clipPath>
</defs>
</svg>
