<svg viewBox="0 0 98 98" fill="none" xmlns="http://www.w3.org/2000/svg">
<path d="M12.25 49H49V55.125H12.25V49ZM6.125 33.6875H36.75V39.8125H6.125V33.6875Z" fill="#ED6C30"/>
<path d="M91.6269 50.8559L82.4394 29.4184C82.2037 28.8674 81.8112 28.3977 81.3109 28.0678C80.8106 27.7379 80.2243 27.5622 79.625 27.5625H70.4375V21.4375C70.4375 20.6253 70.1148 19.8463 69.5405 19.272C68.9662 18.6977 68.1872 18.375 67.375 18.375H18.375V24.5H64.3125V62.9528C62.917 63.7631 61.6957 64.8416 60.7191 66.1263C59.7425 67.4109 59.0299 68.8761 58.6224 70.4375H39.3776C38.6322 67.5506 36.8595 65.0347 34.3918 63.3613C31.9241 61.6879 28.9309 60.9719 25.9731 61.3476C23.0152 61.7233 20.296 63.1649 18.325 65.402C16.354 67.6392 15.2666 70.5184 15.2666 73.5C15.2666 76.4816 16.354 79.3608 18.325 81.598C20.296 83.8351 23.0152 85.2767 25.9731 85.6524C28.9309 86.0281 31.9241 85.3121 34.3918 83.6387C36.8595 81.9653 38.6322 79.4494 39.3776 76.5625H58.6224C59.2886 79.1909 60.8121 81.522 62.9521 83.1872C65.092 84.8524 67.726 85.7565 70.4375 85.7565C73.149 85.7565 75.783 84.8524 77.9229 83.1872C80.0628 81.522 81.5864 79.1909 82.2526 76.5625H88.8125C89.6247 76.5625 90.4037 76.2398 90.978 75.6655C91.5523 75.0912 91.875 74.3122 91.875 73.5V52.0625C91.8751 51.6476 91.7907 51.2371 91.6269 50.8559ZM27.5625 79.625C26.3511 79.625 25.1669 79.2658 24.1596 78.5928C23.1524 77.9197 22.3673 76.9631 21.9037 75.8439C21.4401 74.7247 21.3188 73.4932 21.5552 72.3051C21.7915 71.1169 22.3749 70.0256 23.2315 69.169C24.0881 68.3124 25.1794 67.729 26.3676 67.4927C27.5557 67.2564 28.7872 67.3777 29.9064 67.8412C31.0256 68.3048 31.9822 69.0899 32.6552 70.0971C33.3283 71.1044 33.6875 72.2886 33.6875 73.5C33.6859 75.124 33.04 76.6809 31.8917 77.8292C30.7434 78.9776 29.1864 79.6234 27.5625 79.625ZM70.4375 33.6875H77.6037L84.1697 49H70.4375V33.6875ZM70.4375 79.625C69.2261 79.625 68.0419 79.2658 67.0346 78.5928C66.0274 77.9197 65.2423 76.9631 64.7787 75.8439C64.3151 74.7247 64.1938 73.4932 64.4302 72.3051C64.6665 71.1169 65.2499 70.0256 66.1065 69.169C66.9631 68.3124 68.0544 67.729 69.2426 67.4927C70.4307 67.2564 71.6622 67.3777 72.7814 67.8412C73.9006 68.3048 74.8572 69.0899 75.5302 70.0971C76.2033 71.1044 76.5625 72.2886 76.5625 73.5C76.5609 75.124 75.915 76.6809 74.7667 77.8292C73.6184 78.9776 72.0614 79.6234 70.4375 79.625ZM85.75 70.4375H82.2526C81.578 67.8143 80.052 65.489 77.9138 63.8264C75.7756 62.1637 73.1461 61.2575 70.4375 61.25V55.125H85.75V70.4375Z" fill="#ED6C30"/>
</svg>
