<svg viewBox="0 0 92 92" fill="none" xmlns="http://www.w3.org/2000/svg">
<path d="M46 0C36.9021 0 28.0084 2.69785 20.4438 7.7524C12.8791 12.8069 6.98319 19.9912 3.50156 28.3966C0.0199311 36.802 -0.891022 46.051 0.883898 54.9741C2.65882 63.8973 7.03989 72.0937 13.4731 78.5269C19.9063 84.9601 28.1027 89.3412 37.0259 91.1161C45.949 92.891 55.198 91.9801 63.6034 88.4984C72.0088 85.0168 79.1931 79.1209 84.2476 71.5562C89.3021 63.9916 92 55.0979 92 46C91.9871 33.804 87.1366 22.1112 78.5127 13.4873C69.8888 4.86343 58.196 0.0128792 46 0ZM11.3364 63.6923H29.3914L36.9106 83.8527C31.4488 82.5289 26.3369 80.0426 21.9234 76.5634C17.5099 73.0842 13.8988 68.694 11.3364 63.6923ZM46 58.3846C44.6003 58.3846 43.2321 57.9695 42.0683 57.1919C40.9045 56.4143 39.9974 55.309 39.4618 54.0159C38.9262 52.7228 38.786 51.2998 39.0591 49.927C39.3321 48.5543 40.0061 47.2933 40.9959 46.3035C41.9856 45.3138 43.2466 44.6398 44.6194 44.3667C45.9922 44.0937 47.4151 44.2338 48.7082 44.7695C50.0014 45.3051 51.1066 46.2122 51.8843 47.3759C52.6619 48.5397 53.0769 49.908 53.0769 51.3077C53.0769 53.1846 52.3313 54.9846 51.0041 56.3118C49.677 57.639 47.8769 58.3846 46 58.3846ZM55.0496 83.8571L62.6087 63.6923H80.6637C78.0977 68.6994 74.4807 73.0933 70.06 76.5735C65.6393 80.0537 60.5191 82.5382 55.0496 83.8571ZM46 31.8461C31.7435 31.8634 17.9538 36.9296 7.07694 46.146V46C7.07694 35.6769 11.1778 25.7767 18.4772 18.4772C25.7767 11.1777 35.677 7.07692 46 7.07692C56.323 7.07692 66.2233 11.1777 73.5228 18.4772C80.8223 25.7767 84.9231 35.6769 84.9231 46V46.146C74.0462 36.9296 60.2565 31.8634 46 31.8461Z" fill="#ED6C30"/>
</svg>
