<svg viewBox="0 0 63 25" fill="none" xmlns="http://www.w3.org/2000/svg">
<g clip-path="url(#clip0_278_6029)">
<path fill-rule="evenodd" clip-rule="evenodd" d="M24.7376 3.51422C24.0991 3.55194 23.8335 4.13651 23.6445 4.75194L23.2375 6.07194C22.6433 8.00394 26.1628 8.02794 26.0691 6.38222L25.9669 4.61651C25.9295 3.97194 25.3778 3.47651 24.7376 3.51422Z" fill="currentColor"/>
<path fill-rule="evenodd" clip-rule="evenodd" d="M8.58886 20.3572C5.36394 20.3572 1.97897 18.1612 1.83424 18.067L1.50391 17.851V12.9138L1.60948 12.739C1.77464 12.4612 2.20543 11.5904 2.20543 10.8961L2.39443 6.24358L11.32 5.78585C15.1732 5.60414 17.6217 5.99672 20.2166 6.40815C21.681 6.643 23.1964 6.88472 25.0472 7.03386L39.527 7.03215C40.3698 7.03215 41.2127 6.91729 42.1049 6.79558C43.0039 6.67215 43.9353 6.54528 44.8735 6.54528C45.0114 6.55557 50.7887 7.20186 55.4337 8.39672C60.4158 9.67729 62.1065 11.6881 62.3041 12.5727L62.7382 19.759L62.1321 19.8995C60.9572 20.1738 59.9935 20.3538 57.4275 20.3538H54.7287V18.8967H57.4275C59.3958 18.8967 60.3238 18.7921 61.2007 18.6138L61.1718 18.2195L60.8755 12.7732C60.7818 12.5572 59.3907 10.9184 55.0761 9.80929C50.5316 8.64015 44.8514 8.00415 44.7952 7.999C44.0324 8.00415 43.1895 8.11729 42.2973 8.23901C41.3983 8.36243 40.4669 8.48928 39.527 8.48928H24.9893C23.0244 8.33328 21.4818 8.08643 19.9902 7.84986C17.4702 7.447 15.0932 7.06472 11.3915 7.243L3.78894 7.63215L3.65272 10.9235C3.65443 11.8972 3.17597 12.8967 2.95291 13.3081V17.0452C3.85364 17.575 6.44856 18.9361 8.76083 18.8967H10.9522V20.3538H8.77956C8.71656 20.3555 8.65356 20.3572 8.58886 20.3572ZM18.548 20.3555H47.133V18.8967H18.548V20.3555Z" fill="currentColor"/>
<path fill-rule="evenodd" clip-rule="evenodd" d="M2.98149 10.1999C2.95595 10.9148 2.93211 11.6725 2.92871 12.1233H3.84136C5.01792 12.1233 6.5793 11.2268 6.62698 10.1999V9.25366H2.94914V10.1999H2.98149Z" fill="currentColor"/>
<path fill-rule="evenodd" clip-rule="evenodd" d="M56.7852 11.9348L58.1678 14.4325C58.6207 14.1719 59.2882 14.0022 59.8024 14.0022H59.8365C60.5567 14.0108 61.2753 14.0022 61.9938 14.0022L61.9666 13.8856C61.9087 13.6439 61.2225 12.4611 60.5124 11.9348C59.2712 11.9348 58.0282 11.9348 56.7852 11.9348Z" fill="currentColor"/>
<path fill-rule="evenodd" clip-rule="evenodd" d="M19.4589 20.3538C19.2018 20.8956 18.8561 21.3858 18.439 21.8058H18.4355C17.4922 22.7538 16.188 23.3436 14.7509 23.3436C13.3104 23.3436 12.0061 22.7556 11.0611 21.8058C10.6457 21.3858 10.2983 20.8956 10.0412 20.3538H8.58887V17.7721C8.58887 16.0664 9.28187 14.515 10.3988 13.3921C11.5141 12.2676 13.055 11.5698 14.7492 11.5698H14.7509C16.4417 11.5698 17.9809 12.2676 19.0996 13.3921V13.3938H19.1013C20.2183 14.5201 20.9113 16.0698 20.9113 17.7721V20.3538H19.4589ZM50.9299 14.419C48.9156 14.419 47.2844 16.063 47.2844 18.091C47.2844 20.119 48.9156 21.763 50.9299 21.763C52.9442 21.763 54.5771 20.119 54.5771 18.091C54.5771 16.063 52.9442 14.419 50.9299 14.419ZM14.7509 14.419C12.7366 14.419 11.1037 16.063 11.1037 18.091C11.1037 20.119 12.7366 21.763 14.7509 21.763C16.7635 21.763 18.3964 20.119 18.3964 18.091C18.3964 16.063 16.7635 14.419 14.7509 14.419ZM50.9299 11.5698C52.6224 11.5698 54.1617 12.2676 55.2786 13.3921L55.2803 13.3938H55.282C56.3973 14.5201 57.092 16.0698 57.092 17.7721V20.3538H55.6396C55.3808 20.8956 55.0351 21.3858 54.6197 21.8058C53.6747 22.7556 52.3704 23.3436 50.9299 23.3436C49.4928 23.3436 48.1886 22.7538 47.2453 21.8058H47.2419C46.8247 21.3858 46.4791 20.8956 46.2219 20.3538H44.7695V17.7721C44.7695 16.0698 45.4625 14.5201 46.5778 13.3938H46.5795L46.5812 13.3921C47.6982 12.2676 49.2391 11.5698 50.9299 11.5698Z" fill="currentColor"/>
<path fill-rule="evenodd" clip-rule="evenodd" d="M50.9297 16.7607C50.2009 16.7607 49.6084 17.3573 49.6084 18.0927C49.6084 18.8264 50.2009 19.4213 50.9297 19.4213C51.6601 19.4213 52.251 18.8264 52.251 18.0927C52.251 17.3573 51.6601 16.7607 50.9297 16.7607Z" fill="currentColor"/>
<path fill-rule="evenodd" clip-rule="evenodd" d="M24.0547 10.879H27.3954V9.90698H24.0547V10.879Z" fill="currentColor"/>
<path fill-rule="evenodd" clip-rule="evenodd" d="M14.751 16.7607C14.0205 16.7607 13.4297 17.3573 13.4297 18.0927C13.4297 18.8264 14.0205 19.4213 14.751 19.4213C15.4798 19.4213 16.0723 18.8264 16.0723 18.0927C16.0723 17.3573 15.4798 16.7607 14.751 16.7607Z" fill="currentColor"/>
<path fill-rule="evenodd" clip-rule="evenodd" d="M22.9277 15.9617V17.2063H43.2103L22.9277 15.9617Z" fill="currentColor"/>
<path fill-rule="evenodd" clip-rule="evenodd" d="M60.3613 17.4617H61.9908V16.4897H60.3613V17.4617Z" fill="currentColor"/>
<path fill-rule="evenodd" clip-rule="evenodd" d="M60.1022 16.1743H59.387C59.1027 16.1743 58.8711 16.4074 58.8711 16.6937V17.2577C58.8711 17.5423 59.1027 17.7754 59.387 17.7754H60.1022C60.3865 17.7754 60.6181 17.5423 60.6181 17.2577V16.6937C60.6181 16.4074 60.3865 16.1743 60.1022 16.1743Z" fill="currentColor"/>
<path fill-rule="evenodd" clip-rule="evenodd" d="M2.63672 17.7034V19.7554H7.94745V19.5943C5.73394 19.3886 3.52383 18.2212 2.63672 17.7034Z" fill="currentColor"/>
<path fill-rule="evenodd" clip-rule="evenodd" d="M15.1969 3.16632C14.5584 3.20404 14.2911 3.78861 14.1021 4.40404L13.6968 5.72404C13.6628 5.83547 13.6423 5.94175 13.6338 6.03947C14.6248 6.09089 15.58 6.17318 16.5148 6.27089C16.5284 6.19718 16.5318 6.11661 16.5284 6.03432L16.4262 4.26861C16.3888 3.62404 15.8354 3.12861 15.1969 3.16632Z" fill="currentColor"/>
<path fill-rule="evenodd" clip-rule="evenodd" d="M45.2407 6.65147C45.222 6.63947 38.166 2.30232 35.2135 1.38689C34.8559 1.27718 34.5001 1.17775 34.1493 1.09547V1.09718C33.773 1.00804 33.3865 0.925755 32.9966 0.855469L32.7412 2.28518C36.4156 3.22975 37.8663 5.54061 41.0674 7.47947C41.5731 7.78632 44.0097 7.60461 44.5051 7.89775L45.2407 6.65147Z" fill="currentColor"/>
<path fill-rule="evenodd" clip-rule="evenodd" d="M38.2922 6.96186L38.2786 6.97557C37.8751 7.37157 37.6605 7.855 37.6401 8.41557C37.6333 8.61615 37.6997 8.791 37.8376 8.935C37.9772 9.079 38.1475 9.15272 38.3467 9.15272H39.9472C40.2112 9.15272 40.4342 9.019 40.5636 8.78757C40.6913 8.55786 40.6862 8.29557 40.55 8.06929C40.2588 7.58586 39.7804 7.06643 39.0176 6.799C38.7588 6.70815 38.488 6.76986 38.2922 6.96186Z" fill="currentColor"/>
<path fill-rule="evenodd" clip-rule="evenodd" d="M39.6015 9.88463C39.4534 9.88463 39.307 9.81434 39.2116 9.68405L38.316 8.44805C38.1593 8.23205 38.207 7.92863 38.4216 7.7692C38.6361 7.61148 38.9375 7.65948 39.0958 7.87548L39.9914 9.11148C40.1498 9.32748 40.1021 9.63263 39.8859 9.79034C39.8007 9.85377 39.7003 9.88463 39.6015 9.88463Z" fill="currentColor"/>
</g>
<defs>
<clipPath id="clip0_278_6029">
<rect width="63" height="25" fill="white"/>
</clipPath>
</defs>
</svg>
