<svg viewBox="0 0 64 25" fill="none" xmlns="http://www.w3.org/2000/svg">
<g clip-path="url(#clip0_278_5992)">
<path fill-rule="evenodd" clip-rule="evenodd" d="M28.2268 3.66441C32.5485 3.61358 35.5023 5.03194 38.7267 6.89301C38.416 7.30702 38.2075 7.77619 38.111 8.28698L16.8122 7.49623C16.8083 7.49553 16.8036 7.49469 16.7984 7.49369C16.7716 7.48857 16.7287 7.47937 16.6736 7.46419C16.5629 7.43369 16.4061 7.37997 16.2319 7.28894C15.9858 7.16031 15.706 6.9582 15.4688 6.63795C15.7727 6.50998 16.0627 6.38744 16.3404 6.2701C18.4976 5.35859 19.9132 4.76039 21.3844 4.36397C23.1325 3.893 24.9689 3.7062 28.2268 3.66441Z" fill="currentColor"/>
<path fill-rule="evenodd" clip-rule="evenodd" d="M2.93012 9.55896C2.90167 10.3036 2.87678 11.0946 2.875 11.5625H3.82612C5.05634 11.5625 6.68478 10.6286 6.73456 9.55896V8.57324H2.89634V9.55896H2.93012Z" fill="currentColor"/>
<path fill-rule="evenodd" clip-rule="evenodd" d="M2.47168 18.0483V20.1858H8.01657V20.0197C5.70546 19.8037 3.3979 18.5876 2.47168 18.0483Z" fill="currentColor"/>
<path fill-rule="evenodd" clip-rule="evenodd" d="M39.9687 7.35376L39.9563 7.36626C39.5349 7.78055 39.3109 8.28412 39.2896 8.86805C39.2825 9.07698 39.3518 9.25912 39.4958 9.40912C39.6398 9.55912 39.8194 9.63591 40.0274 9.63591H41.6985C41.9723 9.63591 42.2069 9.49662 42.3403 9.25555C42.4754 9.01626 42.47 8.74305 42.3278 8.50733C42.022 8.00376 41.5243 7.46269 40.7278 7.18412C40.4576 7.08948 40.1749 7.15198 39.9687 7.35376Z" fill="currentColor"/>
<path fill-rule="evenodd" clip-rule="evenodd" d="M41.3374 10.3964C41.1809 10.3964 41.0281 10.325 40.9303 10.1893L39.9952 8.9018C39.8298 8.67502 39.8796 8.35895 40.1054 8.19466C40.3294 8.03216 40.6441 8.08037 40.8094 8.30537L41.7445 9.59288C41.9081 9.81788 41.8583 10.1339 41.6343 10.3C41.5436 10.3643 41.4405 10.3964 41.3374 10.3964Z" fill="currentColor"/>
<path fill-rule="evenodd" clip-rule="evenodd" d="M8.19048 20.5358C4.82337 20.5358 1.29093 18.2483 1.13982 18.1501L0.794922 17.9251V13.1805L1.02248 12.9572C1.35137 12.6322 2.03048 11.7715 2.03048 11.1876L2.23137 6.37154L7.28382 5.87868C15.9541 1.75904 19.2767 0.964391 28.0216 0.884033C33.9239 0.887605 37.5132 2.95547 41.7052 5.41439C42.6723 5.98225 43.6821 6.57332 44.7665 7.16618C45.883 7.20189 51.611 7.43404 56.0927 8.58225C60.2883 9.65904 62.9692 11.0947 63.2679 12.4269L63.7212 19.9126L63.0883 20.059C61.8599 20.3447 60.8554 20.5322 58.1745 20.5322H57.7087V19.0144H58.1745C60.2296 19.0144 61.2003 18.9055 62.1141 18.7197L62.0839 18.309L61.7745 12.6358C61.6554 12.4447 60.2261 11.2108 55.7194 10.0537C51.003 8.84475 44.6101 8.68047 44.5479 8.68047L44.2047 8.58939C43.0439 7.95725 41.9719 7.32868 40.9425 6.72511C36.779 4.28225 33.5381 2.37332 28.0359 2.40368C19.531 2.48047 16.3167 3.25904 7.81181 7.30904L7.55937 7.37868L3.68559 7.75547L3.54159 11.2197C3.54337 12.284 2.72559 13.334 2.30781 13.8019V17.0858C3.24826 17.6376 5.97359 19.059 8.37004 19.0144H9.63581V20.5322H8.39137C8.32559 20.534 8.25804 20.5358 8.19048 20.5358ZM18.4981 20.5322H47.2874V19.0144H18.4981V20.5322Z" fill="currentColor"/>
<path fill-rule="evenodd" clip-rule="evenodd" d="M52.4984 11.3823C54.2655 11.3823 55.8726 12.1091 57.0388 13.2806H57.0406L57.0424 13.2823C58.2086 14.4538 58.9322 16.0698 58.9322 17.8431V20.5323H56.5322C56.9339 19.8395 57.1633 19.0341 57.1633 18.1752C57.1633 15.5877 55.0762 13.4895 52.4984 13.4895C49.9224 13.4895 47.8335 15.5877 47.8335 18.1752C47.8335 19.0341 48.0628 19.8395 48.4664 20.5323H46.0664V17.8431C46.0664 16.0698 46.7899 14.4538 47.9544 13.2823L47.9562 13.2806H47.9579C49.1242 12.1091 50.733 11.3823 52.4984 11.3823Z" fill="currentColor"/>
<path fill-rule="evenodd" clip-rule="evenodd" d="M48.6474 14.3073C49.6323 13.3181 50.9959 12.7056 52.4981 12.7056C54.0003 12.7056 55.3621 13.3181 56.347 14.3073L56.3505 14.3091C57.3354 15.3002 57.9452 16.6663 57.9452 18.1752C57.9452 19.6859 57.3354 21.0538 56.3505 22.0431H56.347C55.3621 23.0323 54.0003 23.6466 52.4981 23.6466C50.9959 23.6466 49.6323 23.0341 48.6474 22.0431C47.6625 21.0538 47.0527 19.6859 47.0527 18.1752C47.0527 16.6663 47.6625 15.3002 48.6474 14.3091V14.3073ZM52.4981 14.3502C50.3967 14.3502 48.6919 16.0627 48.6919 18.1752C48.6919 20.2877 50.3967 22.0002 52.4981 22.0002C54.6012 22.0002 56.3061 20.2877 56.3061 18.1752C56.3061 16.0627 54.6012 14.3502 52.4981 14.3502Z" fill="currentColor"/>
<path fill-rule="evenodd" clip-rule="evenodd" d="M52.4997 19.5625C53.2588 19.5625 53.8792 18.9393 53.8792 18.175C53.8792 17.4125 53.2588 16.7893 52.4997 16.7893C51.7388 16.7893 51.1201 17.4125 51.1201 18.175C51.1201 18.9393 51.7388 19.5625 52.4997 19.5625Z" fill="currentColor"/>
<path fill-rule="evenodd" clip-rule="evenodd" d="M22.7803 16.0181V17.3145H44.1706L22.7803 16.0181Z" fill="currentColor"/>
<path fill-rule="evenodd" clip-rule="evenodd" d="M57.4512 11.3806L58.8947 13.9823C59.3676 13.7109 60.0645 13.5341 60.6014 13.5341H60.6369C61.3889 13.5448 62.1392 13.5341 62.8894 13.5341L62.8609 13.4127C62.8005 13.1609 62.0841 11.9288 61.3445 11.3806C60.0467 11.3806 58.7489 11.3806 57.4512 11.3806Z" fill="currentColor"/>
<path fill-rule="evenodd" clip-rule="evenodd" d="M61.1826 17.1375H62.8857V16.125H61.1826V17.1375Z" fill="currentColor"/>
<path fill-rule="evenodd" clip-rule="evenodd" d="M60.9143 15.7964H60.1676C59.8707 15.7964 59.6289 16.0393 59.6289 16.3375V16.925C59.6289 17.2214 59.8707 17.4643 60.1676 17.4643H60.9143C61.2112 17.4643 61.453 17.2214 61.453 16.925V16.3375C61.453 16.0393 61.2112 15.7964 60.9143 15.7964Z" fill="currentColor"/>
<path fill-rule="evenodd" clip-rule="evenodd" d="M23.7871 10.8162H27.2733V9.80371H23.7871V10.8162Z" fill="currentColor"/>
<path fill-rule="evenodd" clip-rule="evenodd" d="M14.0678 11.3823C15.8349 11.3823 17.442 12.1091 18.6082 13.2806H18.61L18.6118 13.2823C19.7762 14.4538 20.4998 16.0698 20.4998 17.8431V20.5323H18.0998C18.5033 19.8395 18.7326 19.0341 18.7326 18.1752C18.7326 15.5877 16.6438 13.4895 14.0678 13.4895C11.4918 13.4895 9.40107 15.5877 9.40107 18.1752C9.40107 19.0341 9.63218 19.8395 10.034 20.5323H7.63574V17.8431C7.63574 16.0698 8.35929 14.4538 9.52374 13.2823L9.52551 13.2806H9.52729C10.6935 12.1091 12.3024 11.3823 14.0678 11.3823Z" fill="currentColor"/>
<path fill-rule="evenodd" clip-rule="evenodd" d="M10.2168 14.3073C11.2017 13.3181 12.5635 12.7056 14.0675 12.7056C15.5697 12.7056 16.9315 13.3181 17.9163 14.3073L17.9199 14.3091C18.9048 15.3002 19.5146 16.6663 19.5146 18.1752C19.5146 19.6859 18.9048 21.0538 17.9199 22.0431H17.9163C16.9315 23.0323 15.5697 23.6466 14.0675 23.6466C12.5635 23.6466 11.2017 23.0341 10.2168 22.0431C9.23185 21.0538 8.62207 19.6859 8.62207 18.1752C8.62207 16.6663 9.23185 15.3002 10.2168 14.3091V14.3073ZM14.0675 14.3502C11.9643 14.3502 10.2594 16.0627 10.2594 18.1752C10.2594 20.2877 11.9643 22.0002 14.0675 22.0002C16.1706 22.0002 17.8755 20.2877 17.8755 18.1752C17.8755 16.0627 16.1706 14.3502 14.0675 14.3502Z" fill="currentColor"/>
<path fill-rule="evenodd" clip-rule="evenodd" d="M14.0681 19.5625C14.8289 19.5625 15.4476 18.9393 15.4476 18.175C15.4476 17.4125 14.8289 16.7893 14.0681 16.7893C13.3089 16.7893 12.6885 17.4125 12.6885 18.175C12.6885 18.9393 13.3089 19.5625 14.0681 19.5625Z" fill="currentColor"/>
</g>
<defs>
<clipPath id="clip0_278_5992">
<rect width="64" height="25" fill="white"/>
</clipPath>
</defs>
</svg>
