<svg viewBox="0 0 66 25" fill="none" xmlns="http://www.w3.org/2000/svg">
<path fill-rule="evenodd" clip-rule="evenodd" d="M31.808 3.67505C34.9448 3.96162 37.3461 4.97321 39.7662 6.34267C39.3725 6.88313 39.1566 7.51627 39.1308 8.20832L39.1307 8.2117C39.1284 8.28585 39.1304 8.35948 39.1366 8.43235C38.704 8.43483 38.2398 8.43785 37.7485 8.44104C34.358 8.46307 29.6758 8.49349 25.1623 8.41646C22.4054 8.36941 19.7173 8.28234 17.4296 8.12928C15.616 8.00793 14.0772 7.84638 12.96 7.63656C15.0384 5.30509 16.8561 3.67696 19.4189 3.67696C22.8074 3.67696 28.4095 3.67696 31.808 3.67505Z" stroke="currentColor"/>
<path fill-rule="evenodd" clip-rule="evenodd" d="M6.13047 21.2732C3.21317 21.2732 1.99009 19.4136 1.75355 18.4078L1.73047 14.4982L1.98624 14.2539C2.4074 13.8539 3.00163 13.0655 3.00163 12.5655L3.1247 10.202C3.16317 9.45199 3.51894 8.79238 4.12663 8.34815L10.6882 3.55968L9.83624 2.22892L10.8439 1.90392C13.317 1.10199 14.9228 0.725068 18.9439 0.725068L31.9036 0.723145C33.8785 0.894299 35.5478 1.19622 36.9382 1.62507C39.7747 2.49622 46.1516 6.32507 47.2074 6.96545C48.0459 7.09815 51.967 7.74238 56.2401 8.83468C61.4324 10.1616 63.1978 12.2578 63.4055 13.1828L63.8612 20.6443L63.1766 20.802C61.9555 21.0847 60.9555 21.2713 58.2882 21.2713H54.942V19.6347H58.2882C60.2766 19.6347 61.2382 19.5328 62.1247 19.3578L62.0997 19.0136L61.792 13.4059C61.6843 13.1847 60.2805 11.5539 55.8362 10.4213C51.1151 9.21353 46.842 8.56353 46.7997 8.55584L46.4959 8.44622C46.4247 8.40199 39.2939 4.05968 36.4574 3.18661C35.1766 2.79238 33.6189 2.51353 31.8305 2.35392L18.9439 2.35968C15.7112 2.35968 14.192 2.60199 12.3612 3.14238L12.8939 3.97315L5.09201 9.6693C4.88047 9.82315 4.77086 10.0251 4.7574 10.2866L4.63624 12.6078C4.63624 13.6636 3.80932 14.702 3.36701 15.1828V18.1001C3.49009 18.4578 4.08817 19.6616 6.29778 19.6347H8.46124V21.2713H6.32086C6.25547 21.2732 6.19394 21.2732 6.13047 21.2732ZM16.2324 21.2713H47.1689V19.6347H16.2324V21.2713Z" fill="currentColor"/>
<path fill-rule="evenodd" clip-rule="evenodd" d="M3.95132 10.1251L3.93978 10.2443L3.83594 12.2386H6.08978C6.08978 12.2386 7.56286 10.6155 7.50325 9.62317C7.50325 9.62317 5.89748 9.60201 3.95132 10.1251Z" fill="currentColor"/>
<path fill-rule="evenodd" clip-rule="evenodd" d="M12.3479 12.3C14.0806 12.3 15.6556 13.0096 16.796 14.15L16.794 14.1519C17.9363 15.2942 18.644 16.8692 18.644 18.5981V21.2712H16.1267C16.5517 20.5885 16.7979 19.7827 16.7979 18.9192C16.7979 16.4596 14.8056 14.4673 12.346 14.4673C9.88826 14.4673 7.89403 16.4596 7.89403 18.9192C7.89403 19.7827 8.14019 20.5885 8.56519 21.2712H6.0498V18.5981C6.0498 16.8654 6.7575 15.2904 7.89788 14.15C9.03826 13.0096 10.6133 12.3 12.3479 12.3ZM51.0575 12.3C52.7902 12.3 54.3652 13.0096 55.5056 14.15L55.5036 14.1519C56.646 15.2942 57.3536 16.8692 57.3536 18.5981V21.2712H54.8383C55.2633 20.5885 55.5094 19.7827 55.5094 18.9192C55.5094 16.4596 53.5152 14.4673 51.0575 14.4673C48.5979 14.4673 46.6056 16.4596 46.6056 18.9192C46.6056 19.7827 46.8517 20.5885 47.2767 21.2712H44.7594V18.5981C44.7594 16.8654 45.4671 15.2904 46.6075 14.15C47.7479 13.0096 49.3229 12.3 51.0575 12.3Z" fill="currentColor"/>
<path fill-rule="evenodd" clip-rule="evenodd" d="M24.4668 11.8809H26.838V10.7905H24.4668V11.8809Z" fill="currentColor"/>
<path fill-rule="evenodd" clip-rule="evenodd" d="M40.9112 6.61537L40.8959 6.63076C40.4401 7.07499 40.1978 7.6173 40.1766 8.24614C40.167 8.47114 40.2439 8.6673 40.3997 8.82883C40.5555 8.99037 40.7497 9.07307 40.9747 9.07307H42.7805C43.0785 9.07307 43.3324 8.92307 43.4766 8.66537C43.6228 8.40576 43.617 8.11153 43.4632 7.85768C43.1324 7.3173 42.592 6.73268 41.7305 6.43268C41.4382 6.33076 41.1324 6.39999 40.9112 6.61537Z" fill="currentColor"/>
<path fill-rule="evenodd" clip-rule="evenodd" d="M42.3902 9.89429C42.2229 9.89429 42.0575 9.81737 41.9517 9.66929L40.9383 8.28275C40.7613 8.04044 40.8152 7.69814 41.0575 7.52121C41.2998 7.34621 41.6402 7.39621 41.819 7.64044L42.8325 9.02698C43.0094 9.27121 42.9556 9.6116 42.7113 9.78852C42.6152 9.85967 42.5036 9.89429 42.3902 9.89429Z" fill="currentColor"/>
<path fill-rule="evenodd" clip-rule="evenodd" d="M12.3398 3.11353L6.27441 7.79815H9.94364L13.0167 3.8693L12.3398 3.11353Z" fill="currentColor"/>
<path fill-rule="evenodd" clip-rule="evenodd" d="M57.582 12.0366L59.1416 14.8386C59.6551 14.5463 60.4089 14.3578 60.9897 14.3578H61.0281C61.5435 14.3636 62.0589 14.3616 62.5724 14.3597L62.4878 13.377C62.1839 12.8789 61.782 12.4347 61.307 12.0366H57.582Z" fill="currentColor"/>
<path fill-rule="evenodd" clip-rule="evenodd" d="M61.0742 18.2365H62.9165V17.1462H61.0742V18.2365Z" fill="currentColor"/>
<path fill-rule="evenodd" clip-rule="evenodd" d="M60.782 16.7925H59.9743C59.6531 16.7925 59.3916 17.054 59.3916 17.3752V18.0079C59.3916 18.329 59.6531 18.5887 59.9743 18.5887H60.782C61.1031 18.5887 61.3647 18.329 61.3647 18.0079V17.3752C61.3647 17.054 61.1031 16.7925 60.782 16.7925Z" fill="currentColor"/>
<path fill-rule="evenodd" clip-rule="evenodd" d="M51.0577 15.2078C50.0327 15.2078 49.1038 15.6232 48.4346 16.2943C47.7635 16.9655 47.3462 17.8924 47.3462 18.9174C47.3462 19.9424 47.7635 20.8693 48.4346 21.5405C49.1038 22.2116 50.0327 22.627 51.0577 22.627C52.0808 22.627 53.0096 22.2116 53.6808 21.5405C54.3519 20.8693 54.7673 19.9424 54.7673 18.9174C54.7673 17.8924 54.3519 16.9655 53.6808 16.2943C53.0096 15.6232 52.0808 15.2078 51.0577 15.2078ZM47.2769 15.1366C48.2442 14.1693 49.5808 13.5713 51.0577 13.5713C52.5327 13.5713 53.8692 14.1693 54.8365 15.1366C55.8038 16.1039 56.4019 17.4405 56.4019 18.9174C56.4019 20.3943 55.8038 21.7309 54.8365 22.6982C53.8692 23.6636 52.5327 24.2636 51.0577 24.2636C49.5808 24.2636 48.2442 23.6636 47.2769 22.6982C46.3096 21.7309 45.7115 20.3943 45.7115 18.9174C45.7115 17.4405 46.3096 16.1039 47.2769 15.1366ZM12.3481 15.2078C11.3231 15.2078 10.3942 15.6232 9.72311 16.2943C9.05388 16.9655 8.63657 17.8924 8.63657 18.9174C8.63657 19.9424 9.05388 20.8693 9.72311 21.5405C10.3942 22.2116 11.3231 22.627 12.3481 22.627C13.3712 22.627 14.3 22.2116 14.9712 21.5405C15.6404 20.8693 16.0577 19.9424 16.0577 18.9174C16.0577 17.8924 15.6404 16.9655 14.9712 16.2943C14.3 15.6232 13.3712 15.2078 12.3481 15.2078ZM8.56734 15.1366C9.53464 14.1693 10.8712 13.5713 12.3481 13.5713C13.8231 13.5713 15.1596 14.1693 16.1269 15.1366C17.0942 16.1039 17.6923 17.4405 17.6923 18.9174C17.6923 20.3943 17.0942 21.7309 16.1269 22.6982C15.1596 23.6636 13.8231 24.2636 12.3481 24.2636C10.8712 24.2636 9.53464 23.6636 8.56734 22.6982C7.60003 21.7309 7.00195 20.3943 7.00195 18.9174C7.00195 17.4405 7.60003 16.1039 8.56734 15.1366Z" fill="currentColor"/>
<path fill-rule="evenodd" clip-rule="evenodd" d="M12.3473 17.5867C11.6107 17.5867 11.0146 18.1829 11.0146 18.9175C11.0146 19.654 11.6107 20.2502 12.3473 20.2502C12.4684 20.2502 12.5877 20.2329 12.6992 20.2021C13.2646 20.0483 13.6781 19.531 13.6781 18.9175C13.6781 18.1829 13.0819 17.5867 12.3473 17.5867Z" fill="currentColor"/>
<path fill-rule="evenodd" clip-rule="evenodd" d="M20.7705 16.677V18.0732H38.8032L20.7705 16.677Z" fill="currentColor"/>
<path fill-rule="evenodd" clip-rule="evenodd" d="M51.0573 17.5867C50.3208 17.5867 49.7246 18.1829 49.7246 18.9175C49.7246 19.654 50.3208 20.2502 51.0573 20.2502C51.7919 20.2502 52.3881 19.654 52.3881 18.9175C52.3881 18.1829 51.7919 17.5867 51.0573 17.5867Z" fill="currentColor"/>
</svg>
