<svg viewBox="0 0 64 25" fill="none" xmlns="http://www.w3.org/2000/svg">
<path d="M6.31348 4.46505L7.38045 8.63908L39.7459 10.5477C39.7461 10.5367 39.7464 10.5257 39.7467 10.5147L39.7468 10.513C39.7747 9.76504 40.0523 9.09289 40.5634 8.5536C37.3199 6.17789 34.0566 3.94796 30.3723 3.75771C27.1183 3.58892 23.7234 3.62142 20.3862 3.65336C19.4919 3.66192 18.6017 3.67044 17.7195 3.67503M6.31348 4.46505L17.7195 3.67503M6.31348 4.46505C10.067 3.7561 13.8568 3.70216 17.7195 3.67503M17.7195 3.67503C17.7196 3.67503 17.7194 3.67504 17.7195 3.67503Z" stroke="currentColor"/>
<path fill-rule="evenodd" clip-rule="evenodd" d="M58.556 15.8885C56.9376 15.0152 53.9293 13.3635 53.491 12.9235C53.2026 12.6369 53.0826 11.9069 53.2793 11.1619C55.6343 11.6352 57.6643 12.3535 57.9726 13.7252L58.5593 15.8335L58.556 15.8885Z" fill="currentColor"/>
<path fill-rule="evenodd" clip-rule="evenodd" d="M20.3467 18.8101H41.4417V17.3918H20.3467V18.8101Z" fill="currentColor"/>
<path fill-rule="evenodd" clip-rule="evenodd" d="M30.8008 13.9334H31.7458V11.8784H30.8008V13.9334Z" fill="currentColor"/>
<path fill-rule="evenodd" clip-rule="evenodd" d="M27.6963 13.9334H28.6413V11.8784H27.6963V13.9334Z" fill="currentColor"/>
<path fill-rule="evenodd" clip-rule="evenodd" d="M8.94922 11.6083H17.6992V10.6633H8.94922V11.6083Z" fill="currentColor"/>
<path fill-rule="evenodd" clip-rule="evenodd" d="M2.11133 13.815C3.388 13.5333 4.72133 12.6017 4.77133 11.5633V6.04004H2.85133C2.44633 8.64004 2.32633 11.6533 2.26133 12.885C2.26133 13.1967 2.19966 13.5183 2.11133 13.815Z" fill="currentColor"/>
<path fill-rule="evenodd" clip-rule="evenodd" d="M41.3566 9.13676L41.3432 9.14843C40.9482 9.53343 40.7382 10.0034 40.7182 10.5484C40.7116 10.7434 40.7766 10.9134 40.9116 11.0534C41.0482 11.1934 41.2149 11.2651 41.4116 11.2651H42.9766C43.2349 11.2651 43.4532 11.1368 43.5799 10.9118C43.7066 10.6884 43.6999 10.4318 43.5666 10.2134C43.2816 9.74343 42.8132 9.23843 42.0666 8.97676C41.8132 8.88843 41.5482 8.94843 41.3566 9.13676Z" fill="currentColor"/>
<path fill-rule="evenodd" clip-rule="evenodd" d="M42.6377 11.9767C42.4927 11.9767 42.3494 11.91 42.2561 11.7817L41.3794 10.5817C41.2261 10.37 41.2727 10.075 41.4827 9.92165C41.6944 9.76998 41.9894 9.81332 42.1427 10.025L43.0194 11.225C43.1727 11.4367 43.1277 11.7317 42.9161 11.885C42.8327 11.9467 42.7344 11.9767 42.6377 11.9767Z" fill="currentColor"/>
<path fill-rule="evenodd" clip-rule="evenodd" d="M56.7109 17.6602H56.4825C56.2042 17.6602 55.9775 17.8885 55.9775 18.1652V18.7135C55.9775 18.9902 56.2059 19.2169 56.4825 19.2169H56.7109C56.9192 19.2169 57.0975 19.0919 57.1759 18.9119H58.5592V17.9669H57.1759C57.0992 17.7869 56.9192 17.6602 56.7109 17.6602Z" fill="currentColor"/>
<path fill-rule="evenodd" clip-rule="evenodd" d="M4.54288 22.0818C3.08454 22.0818 1.56621 21.0268 0.926211 19.5434L0.866211 19.2634V14.8468L0.969544 14.6768C0.979544 14.6601 1.12121 14.4184 1.26621 14.0751C1.45454 13.6234 1.55288 13.2118 1.55288 12.8851L1.57454 12.4351C1.64288 11.0801 1.76788 8.5551 2.10121 6.25844C2.64121 2.55177 3.49621 0.900105 4.87288 0.900105L30.4828 0.898438C34.1413 1.08677 37.0629 2.72177 39.2029 4.12677C40.2929 4.84344 41.3596 5.62677 42.4346 6.4151C43.7979 7.41344 45.2062 8.44677 46.6662 9.33677C47.4845 9.55177 48.6796 9.72344 49.9428 9.90177C51.0128 10.0551 52.1512 10.2184 53.2313 10.4284C55.5312 10.8784 58.2295 11.6401 58.6646 13.5684C59.2546 15.6851 59.2663 15.9684 59.1945 18.3668L59.1028 21.5168L58.2295 21.7201C57.8396 21.8134 57.5028 21.8934 57.0546 21.9551C56.4162 22.0418 55.6078 22.0818 54.4362 22.0818H53.3096V20.6634H54.4362C55.5412 20.6634 56.2896 20.6284 56.8629 20.5501C57.1879 20.5068 57.4463 20.4501 57.7178 20.3851L57.7779 18.3718C57.8446 16.0551 57.8495 15.9201 57.2912 13.9151C57.0912 13.0351 55.6363 12.3418 52.9579 11.8201C51.9029 11.6151 50.7896 11.4551 49.7429 11.3051C48.3846 11.1118 47.1028 10.9284 46.1945 10.6768L46.0178 10.6001C44.4745 9.66677 43.0112 8.5951 41.5979 7.55677C40.5413 6.78344 39.4945 6.01344 38.4245 5.31177C35.4278 3.3451 33.0429 2.44844 30.4462 2.3151L4.87621 2.31677C4.86621 2.31677 4.08121 2.4951 3.50454 6.46177C3.17954 8.69344 3.05788 11.1734 2.98954 12.5051L2.96954 12.9218C2.97121 13.4034 2.83788 13.9884 2.57288 14.6218C2.46788 14.8768 2.35954 15.0884 2.28454 15.2284V19.1068C2.73954 20.0268 3.71954 20.6351 4.60621 20.6634H5.74621V22.0818H4.62454C4.59788 22.0818 4.57121 22.0818 4.54288 22.0818ZM14.5695 22.0818H45.8763V20.6634H14.5695V22.0818Z" fill="currentColor"/>
<path fill-rule="evenodd" clip-rule="evenodd" d="M46.6629 24.06C45.9496 23.56 45.3696 22.8767 44.9879 22.08H43.5629V19.57C43.5629 17.915 44.2413 16.4083 45.3329 15.3133H45.3346L45.3363 15.3117C46.4296 14.2183 47.9379 13.54 49.5929 13.54C51.2496 13.54 52.7563 14.2183 53.8496 15.3117L53.8513 15.3133H53.8529C54.9446 16.4083 55.6246 17.915 55.6246 19.57V22.08H54.1996C53.8179 22.8767 53.2379 23.56 52.5246 24.06C51.6946 24.6433 50.6813 24.9867 49.5929 24.9867C48.5046 24.9867 47.4929 24.6433 46.6629 24.06ZM49.5929 16.3117C47.6213 16.3117 46.0246 17.91 46.0246 19.88C46.0246 21.8517 47.6213 23.45 49.5929 23.45C51.5646 23.45 53.1629 21.8517 53.1629 19.88C53.1629 17.91 51.5646 16.3117 49.5929 16.3117ZM10.1579 16.3117C8.18626 16.3117 6.58793 17.91 6.58793 19.88C6.58793 21.8517 8.18626 23.45 10.1579 23.45C12.1296 23.45 13.7279 21.8517 13.7279 19.88C13.7279 17.91 12.1296 16.3117 10.1579 16.3117ZM10.1579 13.54C11.8146 13.54 13.3213 14.2183 14.4146 15.3117L14.4163 15.3133H14.4179C15.5096 16.4083 16.1879 17.915 16.1879 19.57V22.08H14.7646C14.3829 22.8767 13.8029 23.56 13.0896 24.06C12.2579 24.6433 11.2463 24.9867 10.1579 24.9867C9.06959 24.9867 8.05793 24.6433 7.22626 24.06C6.51293 23.56 5.93293 22.8767 5.55293 22.08H4.12793V19.57C4.12793 17.915 4.80626 16.4083 5.89793 15.3133H5.89959L5.90126 15.3117C6.99459 14.2183 8.50126 13.54 10.1579 13.54Z" fill="currentColor"/>
<path fill-rule="evenodd" clip-rule="evenodd" d="M49.5924 18.5884C48.8791 18.5884 48.3008 19.1668 48.3008 19.8818C48.3008 20.5951 48.8791 21.1751 49.5924 21.1751C50.3074 21.1751 50.8874 20.5951 50.8874 19.8818C50.8874 19.1668 50.3074 18.5884 49.5924 18.5884Z" fill="currentColor"/>
<path fill-rule="evenodd" clip-rule="evenodd" d="M10.1576 18.5884C9.4426 18.5884 8.86426 19.1668 8.86426 19.8818C8.86426 20.5951 9.4426 21.1751 10.1576 21.1751C10.8726 21.1751 11.451 20.5951 11.451 19.8818C11.451 19.1668 10.8726 18.5884 10.1576 18.5884Z" fill="currentColor"/>
</svg>
