<svg viewBox="0 0 68 25" fill="none" xmlns="http://www.w3.org/2000/svg">
<g clip-path="url(#clip0_278_6068)">
<path fill-rule="evenodd" clip-rule="evenodd" d="M40.408 2.90137C42.408 3.09502 44.0768 4.03036 45.7024 5.2216L45.6775 5.2453L45.6704 5.25595C45.3419 5.60039 45.1488 6.13691 45.031 6.59728C44.9497 6.91497 44.8932 7.24299 44.8584 7.53747C44.1476 7.5387 43.4461 7.53994 42.7518 7.54116C37.1864 7.55097 32.0778 7.55998 26.2461 7.56287L26.9326 2.90137H26.9425H26.9717H27.0009H27.03H27.0592H27.0883H27.1174H27.1464H27.1755H27.2045H27.2335H27.2624H27.2913H27.3203H27.3491H27.378H27.4068H27.4356H27.4644H27.4932H27.5219H27.5506H27.5793H27.6079H27.6366H27.6652H27.6937H27.7223H27.7508H27.7794H27.8078H27.8363H27.8647H27.8932H27.9216H27.9499H27.9783H28.0066H28.0349H28.0632H28.0914H28.1197H28.1479H28.1761H28.2042H28.2324H28.2605H28.2886H28.3167H28.3448H28.3728H28.4008H28.4288H28.4568H28.4847H28.5127H28.5406H28.5685H28.5963H28.6242H28.652H28.6798H28.7076H28.7354H28.7631H28.7909H28.8186H28.8463H28.8739H28.9016H28.9292H28.9568H28.9844H29.012H29.0395H29.0671H29.0946H29.1221H29.1496H29.177H29.2045H29.2319H29.2593H29.2867H29.3141H29.3414H29.3688H29.3961H29.4234H29.4507H29.478H29.5052H29.5325H29.5597H29.5869H29.6141H29.6412H29.6684H29.6955H29.7227H29.7498H29.7769H29.8039H29.831H29.858H29.8851H29.9121H29.9391H29.9661H29.993H30.02H30.0469H30.0739H30.1008H30.1277H30.1545H30.1814H30.2083H30.2351H30.2619H30.2887H30.3155H30.3423H30.3691H30.3959H30.4226H30.4493H30.4761H30.5028H30.5295H30.5561H30.5828H30.6095H30.6361H30.6628H30.6894H30.716H30.7426H30.7692H30.7957H30.8223H30.8489H30.8754H30.9019H30.9285H30.955H30.9815H31.0079H31.0344H31.0609H31.0873H31.1138H31.1402H31.1667H31.1931H31.2195H31.2459H31.2723H31.2986H31.325H31.3514H31.3777H31.4041H31.4304H31.4567H31.483H31.5093H31.5356H31.5619H31.5882H31.6145H31.6407H31.667H31.6933H31.7195H31.7457H31.772H31.7982H31.8244H31.8506H31.8768H31.903H31.9292H31.9554H31.9815H32.0077H32.0339H32.06H32.0862H32.1123H32.1384H32.1646H32.1907H32.2168H32.2429H32.269H32.2951H32.3212H32.3473H32.3734H32.3995H32.4256H32.4517H32.4777H32.5038H32.5299H32.5559H32.582H32.608H32.6341H32.6601H32.6862H32.7122H32.7382H32.7643H32.7903H32.8163H32.8423H32.8683H32.8944H32.9204H32.9464H32.9724H32.9984H33.0244H33.0504H33.0764H33.1024H33.1284H33.1544H33.1804H33.2064H33.2324H33.2584H33.2844H33.3104H33.3364H33.3623H33.3883H33.4143H33.4403H33.4663H33.4923H33.5183H33.5443H33.5702H33.5962H33.6222H33.6482H33.6742H33.7002H33.7262H33.7522H33.7782H33.8042H33.8302H33.8562H33.8822H33.9082H33.9342H33.9602H33.9862H34.0122H34.0382H34.0642H34.0903H34.1163H34.1423H34.1683H34.1944H34.2204H34.2464H34.2725H34.2985H34.3246H34.3506H34.3767H34.4027H34.4288H34.4549H34.4809H34.507H34.5331H34.5592H34.5853H34.6114H34.6375H34.6636H34.6897H34.7158H34.7419H34.768H34.7942H34.8203H34.8464H34.8726H34.8987H34.9249H34.9511H34.9772H35.0034H35.0296H35.0558H35.082H35.1082H35.1344H35.1606H35.1869H35.2131H35.2393H35.2656H35.2918H35.3181H35.3444H35.3707H35.397H35.4233H35.4496H35.4759H35.5022H35.5285H35.5549H35.5812H35.6076H35.634H35.6603H35.6867H35.7131H35.7395H35.7659H35.7924H35.8188H35.8452H35.8717H35.8982H35.9246H35.9511H35.9776H36.0041H36.0307H36.0572H36.0837H36.1103H36.1368H36.1634H36.19H36.2166H36.2432H36.2698H36.2965H36.3231H36.3498H36.3764H36.4031H36.4298H36.4565H36.4832H36.51H36.5367H36.5635H36.5903H36.617H36.6438H36.6707H36.6975H36.7243H36.7512H36.778H36.8049H36.8318H36.8587H36.8857H36.9126H36.9396H36.9665H36.9935H37.0205H37.0475H37.0746H37.1016H37.1287H37.1557H37.1828H37.2099H37.2371H37.2642H37.2913H37.3185H37.3457H37.3729H37.4001H37.4274H37.4546H37.4819H37.5092H37.5365H37.5638H37.5911H37.6185H37.6459H37.6733H37.7007H37.7281H37.7556H37.783H37.8105H37.838H37.8655H37.8931H37.9206H37.9482H37.9758H38.0034H38.031H38.0587H38.0863H38.114H38.1417H38.1695H38.1972H38.225H38.2528H38.2806H38.3084H38.3363H38.3641H38.392H38.4199H38.4479H38.4758H38.5038H38.5318H38.5598H38.5878H38.6159H38.644H38.6721H38.7002H38.7283H38.7565H38.7847H38.8129H38.8412H38.8694H38.8977H38.926H38.9543H38.9827H39.011H39.0394H39.0678H39.0963H39.1247H39.1532H39.1817H39.2103H39.2388H39.2674H39.296H39.3247H39.3533H39.382H39.4107H39.4394H39.4682H39.497H39.5258H39.5546H39.5835H39.6123H39.6412H39.6702H39.6991H39.7281H39.7571H39.7862H39.8152H39.8443H39.8734H39.9026H39.9317H39.9609H39.9901H40.0194H40.0487H40.078H40.1073H40.1366H40.166H40.1954H40.2249H40.2543H40.2838H40.3134H40.3429H40.3725H40.4021H40.408Z" stroke="currentColor"/>
<path fill-rule="evenodd" clip-rule="evenodd" d="M6.89661 20.3425C4.17161 20.3425 0.902494 19.0764 0.761317 19.0205L0.364258 18.8646V13.6205L0.552494 13.4367C0.824552 13.169 1.38485 12.4602 1.38485 11.9793L1.43779 10.947C1.47602 10.2367 1.52161 9.41461 1.54367 8.67931C1.56132 8.17196 2.33191 7.2499 3.12897 6.96461L3.34073 6.92931H22.2408L23.1937 2.04255C23.3658 1.16314 24.1408 0.526373 25.0349 0.526373L40.4893 0.524902C44.0672 0.836667 46.2275 2.5852 48.5128 4.43667C49.5687 5.28961 50.6569 6.17049 51.9422 6.96902C52.5084 7.02196 53.3261 7.05284 54.279 7.08814C60.0025 7.30726 65.1878 7.71314 65.7599 10.2543L66.3158 14.8249C66.6555 15.0602 67.1349 15.5161 67.1349 16.2102V18.1734C67.1349 18.7161 67.0702 19.2602 66.5966 19.569C65.6908 20.1381 64.6319 20.3381 62.5349 20.3381H61.3775V19.0896H62.5349C64.3305 19.0896 65.2172 18.944 65.8819 18.5396C65.8643 18.5264 65.8849 18.4131 65.8849 18.1734V16.2102C65.8849 16.0381 65.5878 15.8278 65.4687 15.7734L65.1525 15.6264L64.529 10.4661C64.1319 8.71608 57.4452 8.46167 54.2319 8.33961C53.1599 8.29843 52.2555 8.26314 51.6687 8.19843L51.4114 8.11167C50.0025 7.25137 48.8452 6.31461 47.7261 5.40873C45.4996 3.60578 43.5775 2.0499 40.4349 1.77343L25.0349 1.77637C24.7319 1.77637 24.4805 1.9852 24.4202 2.28226L23.2702 8.17784H3.46426C3.13338 8.34255 2.82161 8.73814 2.7672 8.86167C2.77014 9.46461 2.72602 10.2955 2.68632 11.0146L2.63632 12.0072C2.63632 12.8822 1.96132 13.747 1.61426 14.1322V17.9999C2.57602 18.3396 5.11132 19.122 7.10985 19.0896H8.79514V20.3381H7.12602C7.04955 20.3411 6.97308 20.3425 6.89661 20.3425ZM17.4658 20.3396H52.5937V19.0896H17.4658V20.3396Z" fill="currentColor"/>
<path fill-rule="evenodd" clip-rule="evenodd" d="M65.7318 15.6822L65.2186 10.9028H63.8701V15.6822H65.7318Z" fill="currentColor"/>
<path fill-rule="evenodd" clip-rule="evenodd" d="M37.21 9.99983H40.0953V9.16748H37.21V9.99983Z" fill="currentColor"/>
<path fill-rule="evenodd" clip-rule="evenodd" d="M2.0127 11.9278H2.56417C3.83476 11.9278 5.52005 10.9646 5.57152 9.86309V8.84985H2.16417C2.12741 9.91603 2.04946 11.1308 2.0127 11.9278Z" fill="currentColor"/>
<path fill-rule="evenodd" clip-rule="evenodd" d="M46.5051 6.01167L46.4933 6.02343C46.1448 6.3602 45.9595 7.61314 45.9418 8.09255C45.936 8.26461 45.9933 8.41461 46.1139 8.53814C46.233 8.66167 46.3801 8.7249 46.5521 8.7249H47.9345C49.4139 8.7249 47.683 6.06461 47.1315 5.87196C46.908 5.79402 46.6742 5.84843 46.5051 6.01167Z" fill="currentColor"/>
<path fill-rule="evenodd" clip-rule="evenodd" d="M22.6367 16.2881V17.3558H48.1515L22.6367 16.2881Z" fill="currentColor"/>
<path fill-rule="evenodd" clip-rule="evenodd" d="M49.9022 19.7131H49.0684V17.8808C49.0684 13.5161 52.6199 9.9646 56.9861 9.9646C61.3508 9.9646 64.9022 13.5161 64.9022 17.8808V19.6205H64.0684V17.8808C64.0684 13.9764 60.8905 10.7984 56.9861 10.7984C53.0802 10.7984 49.9022 13.9764 49.9022 17.8808V19.7131Z" fill="currentColor"/>
<path fill-rule="evenodd" clip-rule="evenodd" d="M56.9868 17.5969C56.2294 17.5969 55.6162 18.2117 55.6162 18.969C55.6162 19.7264 56.2294 20.3396 56.9868 20.3396C57.7426 20.3396 58.3573 19.7264 58.3573 18.969C58.3573 18.2117 57.7426 17.5969 56.9868 17.5969Z" fill="currentColor"/>
<path fill-rule="evenodd" clip-rule="evenodd" d="M21.0482 19.7131H20.2129V17.8808C20.2129 13.9764 17.0365 10.7984 13.1306 10.7984C9.22465 10.7984 6.04818 13.9764 6.04818 17.8808V19.5749H5.21289V17.8808C5.21289 13.5161 8.76583 9.9646 13.1306 9.9646C17.4953 9.9646 21.0482 13.5161 21.0482 17.8808V19.7131Z" fill="currentColor"/>
<path fill-rule="evenodd" clip-rule="evenodd" d="M56.9845 11.8411H56.986C58.6448 11.8411 60.1551 12.5205 61.2507 13.6161L61.2521 13.6146C62.3463 14.7087 63.0257 16.219 63.0257 17.8822V20.3396H62.0874C61.8051 21.3881 61.208 22.3102 60.4066 22.9925C59.483 23.7778 58.2874 24.2528 56.986 24.2528C55.6845 24.2528 54.4904 23.7793 53.5668 22.994L53.5654 22.9955C52.7624 22.3117 52.1639 21.3896 51.883 20.3396H50.9448V17.8822C50.9448 16.2205 51.6242 14.7087 52.7183 13.6146H52.7198C53.8154 12.5205 55.3242 11.8411 56.9845 11.8411ZM56.986 15.4425C55.0389 15.4425 53.4595 17.022 53.4595 18.969C53.4595 20.9161 55.0389 22.494 56.986 22.494C58.933 22.494 60.511 20.9161 60.511 18.969C60.511 17.022 58.933 15.4425 56.986 15.4425ZM13.1301 15.4425C11.183 15.4425 9.60504 17.022 9.60504 18.969C9.60504 20.9161 11.183 22.494 13.1301 22.494C15.0771 22.494 16.6551 20.9161 16.6551 18.969C16.6551 17.022 15.0771 15.4425 13.1301 15.4425ZM13.1301 11.8411C14.7889 11.8411 16.3007 12.5205 17.3963 13.6161L17.3977 13.6146C18.4918 14.7087 19.1713 16.219 19.1713 17.8822V20.3396H18.2316C17.9507 21.3881 17.3536 22.3102 16.5507 22.9925C15.6271 23.7778 14.4316 24.2528 13.1301 24.2528C11.8286 24.2528 10.633 23.7778 9.70945 22.9925C8.90651 22.3087 8.30945 21.3881 8.0271 20.3396H7.08887V17.8822C7.08887 16.2205 7.76828 14.7087 8.86387 13.6146C9.95651 12.5205 11.4683 11.8411 13.1301 11.8411Z" fill="currentColor"/>
<path fill-rule="evenodd" clip-rule="evenodd" d="M13.1304 17.5969C12.373 17.5969 11.7598 18.2117 11.7598 18.969C11.7598 19.7264 12.373 20.3396 13.1304 20.3396C13.8877 20.3396 14.501 19.7264 14.501 18.969C14.501 18.2117 13.8877 17.5969 13.1304 17.5969Z" fill="currentColor"/>
<path fill-rule="evenodd" clip-rule="evenodd" d="M25.9131 9.99983H28.7984V9.16748H25.9131V9.99983Z" fill="currentColor"/>
</g>
<defs>
<clipPath id="clip0_278_6068">
<rect width="68" height="25" fill="white"/>
</clipPath>
</defs>
</svg>
