<svg viewBox="0 0 64 25" fill="none" xmlns="http://www.w3.org/2000/svg">
<path fill-rule="evenodd" clip-rule="evenodd" d="M39.4538 6.84611C39.1674 7.26996 38.9903 7.75061 38.9335 8.26998H18.0345C16.1239 8.26998 14.9448 8.2128 13.9238 7.97733C14.9757 7.22756 16.1828 6.39244 17.4522 5.68972C19.0769 4.79033 20.7404 4.14498 22.2517 4.14498C23.4914 4.14498 24.8708 4.14456 26.2407 4.14415L26.273 4.14414C27.632 4.14372 28.9804 4.14331 30.1726 4.14331C33.5946 4.14331 36.5521 5.29344 39.4538 6.84611Z" stroke="currentColor"/>
<path fill-rule="evenodd" clip-rule="evenodd" d="M7.01999 20.8317C3.8301 20.8317 0.483566 18.6967 0.340408 18.605L0.0136719 18.395V13.5967L0.118093 13.4267C0.281461 13.1567 0.707566 12.31 0.707566 11.635L0.894514 6.64837L7.78631 6.20337L8.03725 6.0867C11.4208 4.49837 17.7214 1.54004 21.3105 1.54004H31.5168C33.3896 1.70004 34.9812 1.98337 36.3067 2.38837C39.0048 3.21004 45.0831 6.81837 46.0987 7.42837C47.057 7.53837 52.14 8.1517 56.305 9.20504C61.233 10.45 62.9054 12.405 63.1008 13.265L63.5336 20.2517L62.9324 20.3883C61.7703 20.655 60.8187 20.83 58.2772 20.83H55.7627V19.4117H58.2772C60.2259 19.4117 61.1437 19.31 62.0094 19.1383L61.6877 13.46C61.5951 13.25 60.2191 11.6567 55.9513 10.5784C51.4562 9.4417 45.8376 8.82337 45.7821 8.81837L45.4873 8.71837C45.4183 8.67837 38.6006 4.57004 35.8856 3.74337C34.6562 3.36837 33.164 3.10337 31.4545 2.95504L21.3105 2.9567C18.0431 2.9567 11.9328 5.8267 8.65031 7.3667L8.01704 7.60837L2.27725 7.98004L2.13915 11.6617C2.14083 12.6083 1.66757 13.5783 1.44694 13.98V17.6117C2.33789 18.1267 4.93325 19.4433 7.19178 19.4133L9.20441 19.4117V20.83H7.21031C7.14799 20.8317 7.08399 20.8317 7.01999 20.8317ZM17.0275 20.83H47.9378V19.4117H17.0275V20.83Z" fill="currentColor"/>
<path fill-rule="evenodd" clip-rule="evenodd" d="M1.47604 10.9583C1.45078 11.6533 1.4272 12.39 1.42383 12.8283H2.32657C3.49204 12.8283 5.03478 11.955 5.08193 10.9583V10.0383H1.44404V10.9583H1.47604Z" fill="currentColor"/>
<path fill-rule="evenodd" clip-rule="evenodd" d="M57.6426 12.645L59.0102 15.0733C59.4582 14.82 60.1184 14.655 60.627 14.655H60.6607C61.3731 14.6633 62.0839 14.655 62.7946 14.655L62.7677 14.5416C62.7104 14.305 62.0317 13.1566 61.331 12.645C60.1016 12.645 58.8721 12.645 57.6426 12.645Z" fill="currentColor"/>
<path fill-rule="evenodd" clip-rule="evenodd" d="M30.3174 11.6183H33.6201V10.6733H30.3174V11.6183Z" fill="currentColor"/>
<path fill-rule="evenodd" clip-rule="evenodd" d="M15.6377 11.6183H18.9405V10.6733H15.6377V11.6183Z" fill="currentColor"/>
<path fill-rule="evenodd" clip-rule="evenodd" d="M21.7637 16.5601V17.7701H44.2142L21.7637 16.5601Z" fill="currentColor"/>
<path fill-rule="evenodd" clip-rule="evenodd" d="M61.1787 18.0185H62.7905V17.0735H61.1787V18.0185Z" fill="currentColor"/>
<path fill-rule="evenodd" clip-rule="evenodd" d="M60.9227 16.7666H60.2154C59.9341 16.7666 59.7051 16.9932 59.7051 17.2699V17.8199C59.7051 18.0966 59.9341 18.3232 60.2154 18.3232H60.9227C61.204 18.3232 61.4331 18.0966 61.4331 17.8199V17.2699C61.4331 16.9932 61.204 16.7666 60.9227 16.7666Z" fill="currentColor"/>
<path fill-rule="evenodd" clip-rule="evenodd" d="M40.758 7.14662L40.7462 7.15828C40.3471 7.54495 40.1349 8.01495 40.1147 8.55995C40.1079 8.75495 40.1736 8.92495 40.31 9.06495C40.4465 9.20495 40.6166 9.27662 40.8136 9.27662H42.3968C42.6561 9.27662 42.8785 9.14662 43.0048 8.92162C43.1328 8.69828 43.1277 8.44328 42.993 8.22328C42.7033 7.75328 42.2317 7.24828 41.4772 6.98828C41.2195 6.89995 40.9534 6.95995 40.758 7.14662Z" fill="currentColor"/>
<path fill-rule="evenodd" clip-rule="evenodd" d="M42.055 9.98664C41.9068 9.98664 41.762 9.91998 41.6693 9.79331L40.7818 8.59164C40.6268 8.37998 40.674 8.08498 40.8862 7.93164C41.1001 7.77831 41.3982 7.82331 41.5531 8.03498L42.4407 9.23664C42.5957 9.44664 42.5485 9.74164 42.3363 9.89664C42.2504 9.95664 42.1527 9.98664 42.055 9.98664Z" fill="currentColor"/>
<path fill-rule="evenodd" clip-rule="evenodd" d="M1.13379 18.2534V20.2484H6.38684V20.0917C4.19736 19.8917 2.01126 18.7567 1.13379 18.2534Z" fill="currentColor"/>
<path fill-rule="evenodd" clip-rule="evenodd" d="M13.115 12.29H13.1166C14.7891 12.29 16.3116 12.9683 17.4164 14.0617L17.4198 14.0633C18.5246 15.1567 19.2101 16.665 19.2101 18.32V20.83H16.9364C17.3171 20.1834 17.536 19.4317 17.536 18.63C17.536 16.215 15.5571 14.2567 13.115 14.2567C10.6745 14.2567 8.69559 16.215 8.69559 18.63C8.69559 19.4317 8.91285 20.1834 9.29516 20.83H7.02148V18.32C7.02148 16.665 7.70695 15.1567 8.8118 14.0633L8.81348 14.0617C9.91832 12.9683 11.4425 12.29 13.115 12.29Z" fill="currentColor"/>
<path fill-rule="evenodd" clip-rule="evenodd" d="M9.46678 15.0199C10.3998 14.0966 11.6916 13.5249 13.1164 13.5249C14.5379 13.5249 15.828 14.0966 16.7611 15.0199L16.7644 15.0216C17.6975 15.9466 18.2752 17.2216 18.2752 18.6299C18.2752 20.0399 17.6975 21.3166 16.7644 22.2399H16.7611C15.828 23.1632 14.5379 23.7366 13.1164 23.7366C11.6916 23.7366 10.3998 23.1649 9.46678 22.2399C8.53373 21.3166 7.95605 20.0399 7.95605 18.6299C7.95605 17.2216 8.53373 15.9466 9.46678 15.0216V15.0199ZM13.1164 15.0599C11.124 15.0599 9.50889 16.6582 9.50889 18.6299C9.50889 20.6016 11.124 22.1999 13.1164 22.1999C15.1072 22.1999 16.7223 20.6016 16.7223 18.6299C16.7223 16.6582 15.1072 15.0599 13.1164 15.0599Z" fill="currentColor"/>
<path fill-rule="evenodd" clip-rule="evenodd" d="M13.1165 19.925C13.8357 19.925 14.4235 19.3434 14.4235 18.63C14.4235 17.9184 13.8357 17.3367 13.1165 17.3367C12.3957 17.3367 11.8096 17.9184 11.8096 18.63C11.8096 19.3434 12.3957 19.925 13.1165 19.925Z" fill="currentColor"/>
<path fill-rule="evenodd" clip-rule="evenodd" d="M51.8503 12.29C53.5244 12.29 55.0469 12.9684 56.1518 14.0617L56.1551 14.0634C57.2583 15.1567 57.9455 16.665 57.9455 18.32V20.83H55.6718C56.0524 20.1834 56.2697 19.4317 56.2697 18.63C56.2697 16.215 54.2924 14.2567 51.8503 14.2567C49.4099 14.2567 47.4309 16.215 47.4309 18.63C47.4309 19.4317 47.6482 20.1834 48.0288 20.83H45.7568V18.32C45.7568 16.665 46.4423 15.1567 47.5455 14.0634L47.5488 14.0617C48.6537 12.9684 50.1779 12.29 51.8503 12.29Z" fill="currentColor"/>
<path fill-rule="evenodd" clip-rule="evenodd" d="M48.2021 15.0199C49.1352 14.0966 50.4253 13.5249 51.8501 13.5249C53.2733 13.5249 54.5634 14.0966 55.4964 15.0199L55.4998 15.0216C56.4328 15.9466 57.0105 17.2216 57.0105 18.6299C57.0105 20.0399 56.4328 21.3166 55.4998 22.2399H55.4964C54.5634 23.1632 53.2733 23.7366 51.8501 23.7366C50.4253 23.7366 49.1352 23.1649 48.2021 22.2399C47.2691 21.3166 46.6914 20.0399 46.6914 18.6299C46.6914 17.2216 47.2691 15.9466 48.2021 15.0216V15.0199ZM51.8501 15.0599C49.8577 15.0599 48.2442 16.6582 48.2442 18.6299C48.2442 20.6016 49.8577 22.1999 51.8501 22.1999C53.8425 22.1999 55.4577 20.6016 55.4577 18.6299C55.4577 16.6582 53.8425 15.0599 51.8501 15.0599Z" fill="currentColor"/>
<path fill-rule="evenodd" clip-rule="evenodd" d="M51.8518 19.925C52.571 19.925 53.1588 19.3434 53.1588 18.63C53.1588 17.9184 52.571 17.3367 51.8518 17.3367C51.131 17.3367 50.5449 17.9184 50.5449 18.63C50.5449 19.3434 51.131 19.925 51.8518 19.925Z" fill="currentColor"/>
</svg>
