<svg viewBox="0 0 64 29" fill="none" xmlns="http://www.w3.org/2000/svg">
<path fill-rule="evenodd" clip-rule="evenodd" d="M10.3756 5.90751L10.3625 5.87309L10.3445 5.84095C10.1992 5.58131 10.219 5.426 10.2769 5.31327C10.3523 5.1663 10.5571 4.96728 11.0155 4.77246C11.9279 4.38475 13.5491 4.13784 15.9101 4.13784H15.9115C21.9921 4.13784 28.0729 4.13784 34.1552 4.13623C36.3039 4.35218 38.0933 5.39777 39.8359 6.72283C39.8254 6.73284 39.8149 6.74299 39.8046 6.75328L39.7662 6.79139L39.76 6.80094C39.418 7.1686 39.2152 7.74726 39.0906 8.25025C39.0014 8.61029 38.9405 8.98268 38.9044 9.31271L12.2032 9.37606C11.8719 9.37717 11.6331 9.21727 11.5511 9.00108L10.3756 5.90751Z" stroke="currentColor"/>
<path fill-rule="evenodd" clip-rule="evenodd" d="M6.18775 9.37765H3.71875C3.96471 8.22714 4.31226 6.79981 4.83216 5.74731H5.31025L6.18775 9.37765Z" stroke="currentColor"/>
<path fill-rule="evenodd" clip-rule="evenodd" d="M7.9737 23.2917C4.97663 23.2917 0.554384 20.5416 0.363945 20.4223L0.0439453 20.2226V15.929L0.24375 15.726C0.53253 15.4327 1.12882 14.6578 1.12882 14.1293L1.18502 13C1.2256 12.2202 1.27243 11.3212 1.29741 10.5172C1.31302 10.0371 1.9218 9.22192 2.62892 8.80625C2.93643 7.47869 3.4656 5.66136 3.90112 4.64475L4.06658 4.26936C4.11497 4.16142 4.15087 4.09536 4.16648 4.03575C4.16024 4.00997 4.14307 3.93747 4.12434 3.81986L3.94326 2.63086L4.5536 2.49714C7.15731 1.92519 12.3726 1.58203 15.9097 1.58203H34.2387C38.0366 1.92358 40.3296 3.83919 42.757 5.86758C43.8762 6.80203 45.0329 7.76869 46.3972 8.64192C46.9966 8.69992 47.8645 8.73375 48.8775 8.77403C54.9529 9.01247 60.4553 9.45714 61.0641 12.2411L61.6307 15.407C61.9929 15.6599 62.5236 16.1642 62.5236 16.9391V20.917C62.5236 21.5098 62.4533 22.1043 61.9523 22.4443C60.9907 23.0694 59.8652 23.2901 57.6409 23.2901H56.5232V21.9191H57.6409C59.5468 21.9191 60.4865 21.7612 61.1936 21.3181C61.1749 21.3036 61.1952 21.1796 61.1952 20.917V16.9391C61.1952 16.7522 60.8799 16.5186 60.7534 16.459L60.4428 16.3108L59.7638 12.5166C59.3345 10.5559 52.2383 10.2772 48.8276 10.1418C47.6896 10.0983 46.7281 10.0597 46.1068 9.98881L45.8336 9.89214C44.3367 8.94964 43.1097 7.92497 41.9218 6.93092C39.557 4.95731 37.5168 3.25275 34.181 2.94986L15.9097 2.95308C12.7066 2.95308 8.12043 3.23503 5.45273 3.71353C5.52765 4.19203 5.49487 4.35153 5.27009 4.84775L5.11556 5.20058C4.6816 6.21236 4.12121 8.18436 3.85117 9.43297L3.77156 9.80192L3.42658 9.92758C3.04258 10.0693 2.65858 10.5688 2.59614 10.7154C2.59926 11.3743 2.55087 12.2862 2.51029 13.0741L2.45565 14.1616C2.45721 15.1186 1.73917 16.0659 1.37234 16.488V19.4428C2.43068 20.0663 5.83204 21.94 8.08921 21.9207L9.70795 21.9191V23.2901H8.10795C8.06424 23.2901 8.01897 23.2917 7.9737 23.2917ZM19.2533 23.2901H46.9778V21.9191H19.2533V23.2901Z" fill="currentColor"/>
<path fill-rule="evenodd" clip-rule="evenodd" d="M56.1953 12.5681L58.0435 15.9885C58.6492 15.6308 59.5405 15.4004 60.2289 15.4004H60.2741L60.9563 15.4052L60.5145 12.9419L56.1953 12.5681Z" fill="currentColor"/>
<path fill-rule="evenodd" clip-rule="evenodd" d="M30.7578 11.964H33.8205V11.0505H30.7578V11.964Z" fill="currentColor"/>
<path fill-rule="evenodd" clip-rule="evenodd" d="M18.7334 11.5065H21.796V10.593H18.7334V11.5065Z" fill="currentColor"/>
<path fill-rule="evenodd" clip-rule="evenodd" d="M1.79492 14.0731H2.38028C3.73053 14.0731 5.51784 13.0194 5.57248 11.8127V10.7026H1.9557C1.91667 11.8707 1.83394 13.2014 1.79492 14.0731Z" fill="currentColor"/>
<path fill-rule="evenodd" clip-rule="evenodd" d="M40.6251 7.59306L40.6142 7.60595C40.2426 7.9749 40.046 9.34756 40.0288 9.87279C40.0225 10.0613 40.0834 10.2256 40.2099 10.361C40.3363 10.4963 40.494 10.5656 40.6766 10.5656H42.1439C43.7127 10.5656 41.877 7.65106 41.2916 7.44001C41.0543 7.35462 40.8062 7.41423 40.6251 7.59306Z" fill="currentColor"/>
<path fill-rule="evenodd" clip-rule="evenodd" d="M22.9277 18.8516V20.0213H43.7386L22.9277 18.8516Z" fill="currentColor"/>
<path fill-rule="evenodd" clip-rule="evenodd" d="M10.851 26.1966C9.99714 25.4474 9.36495 24.4388 9.06524 23.2901H8.06934V20.5963C8.06934 18.7774 8.79051 17.1212 9.95187 15.9225C11.1133 14.7238 12.7179 13.9795 14.4818 13.9795C16.2426 13.9795 17.8473 14.7238 19.0087 15.9241L19.0102 15.9225C20.1716 17.1212 20.8928 18.7758 20.8928 20.5963V23.2901H19.8969C19.5987 24.4388 18.9634 25.4474 18.1127 26.1966C17.1324 27.0569 15.8633 27.5773 14.4818 27.5773C13.1004 27.5773 11.8313 27.0569 10.851 26.1966ZM51.7501 17.9251C49.6834 17.9251 48.0085 19.6538 48.0085 21.787C48.0085 23.9217 49.6834 25.6504 51.7501 25.6504C53.8169 25.6504 55.4918 23.9217 55.4918 21.787C55.4918 19.6538 53.8169 17.9251 51.7501 17.9251ZM14.4818 17.9251C12.4151 17.9251 10.7386 19.6538 10.7386 21.787C10.7386 23.9217 12.4151 25.6504 14.4818 25.6504C16.5486 25.6504 18.2235 23.9217 18.2235 21.787C18.2235 19.6538 16.5486 17.9251 14.4818 17.9251ZM51.7501 13.9795C53.5125 13.9795 55.1156 14.7238 56.2785 15.9241L56.2801 15.9225C57.4415 17.1212 58.1626 18.7758 58.1626 20.5963V23.2901H57.1652C56.867 24.4388 56.2333 25.4474 55.381 26.1966C54.4007 27.0569 53.1316 27.5773 51.7501 27.5773C50.3687 27.5773 49.1012 27.0585 48.1209 26.1982L48.1193 26.1998C47.267 25.4506 46.6333 24.4405 46.3335 23.2901H45.3376V20.5963C45.3376 18.7758 46.0588 17.1212 47.2202 15.9225C48.3815 14.7238 49.9862 13.9795 51.7501 13.9795Z" fill="currentColor"/>
<path fill-rule="evenodd" clip-rule="evenodd" d="M51.7498 20.2854C50.9459 20.2854 50.2949 20.9588 50.2949 21.7886C50.2949 22.6183 50.9459 23.2901 51.7498 23.2901C52.5537 23.2901 53.2046 22.6183 53.2046 21.7886C53.2046 20.9588 52.5537 20.2854 51.7498 20.2854Z" fill="currentColor"/>
<path fill-rule="evenodd" clip-rule="evenodd" d="M14.4813 20.2854C13.6774 20.2854 13.0264 20.9588 13.0264 21.7886C13.0264 22.6183 13.6774 23.2901 14.4813 23.2901C15.2852 23.2901 15.9361 22.6183 15.9361 21.7886C15.9361 20.9588 15.2852 20.2854 14.4813 20.2854Z" fill="currentColor"/>
</svg>
