<svg viewBox="0 0 56 25" fill="none" xmlns="http://www.w3.org/2000/svg">
<path d="M41.4891 7.50019C40.9741 7.0473 40.4729 6.58557 40.0073 6.15674C39.8147 5.9793 39.6281 5.80749 39.4493 5.64428M41.4891 7.50019L36.8445 3.26191M41.4891 7.50019C41.435 7.54134 41.3828 7.58596 41.3329 7.63393L41.3261 7.64054C40.982 7.97421 40.787 8.52293 40.6717 8.98241C40.5492 9.47033 40.4877 9.98156 40.4755 10.3398V10.3411C40.4741 10.3854 40.4743 10.4296 40.4763 10.4736H40.0683C38.9193 10.4736 37.1978 10.0213 35.7135 9.54281C34.9822 9.30707 34.3265 9.07109 33.8536 8.89399C33.6773 8.82798 33.5266 8.77023 33.4072 8.72383V3.09717M41.4891 7.50019L33.4072 3.09717M39.4493 5.64428L39.7863 5.27495M39.4493 5.64428C39.1749 5.39432 38.8901 5.12851 38.597 4.85499C38.0357 4.33117 37.4451 3.77996 36.8445 3.26191M36.8445 3.26191C36.7132 3.14871 36.575 3.09717 36.4002 3.09717H33.4072M36.8445 3.26191L33.4072 3.09717" stroke="currentColor"/>
<path d="M30.3012 3.77808C30.3 3.40312 29.9937 3.09717 29.6192 3.09717H6.70117V6.35828C6.70117 6.61363 6.82081 6.82048 7.04143 6.94748L9.68325 8.47257C9.79483 8.53704 9.89469 8.56384 10.0234 8.56384H29.6206C29.9945 8.56384 30.3012 8.25714 30.3012 7.88328V3.77808ZM30.3012 3.77808C30.3012 3.77832 30.3012 3.77784 30.3012 3.77808Z" stroke="currentColor"/>
<path fill-rule="evenodd" clip-rule="evenodd" d="M4.38637 20.8445C2.98915 20.8445 2.06693 20.3056 1.53637 19.8445C0.937761 19.3237 0.694705 18.7862 0.669705 18.7279L0.621094 18.4931V14.814L0.705817 14.6723C0.715539 14.657 0.834983 14.457 0.953039 14.1737C1.10998 13.7959 1.19193 13.4515 1.19193 13.1779C1.20582 12.9001 1.22109 12.1862 1.24332 11.2251C1.30721 8.26672 1.41693 3.31672 1.65026 1.70977L1.81693 0.675049H37.5628L37.7267 0.809771C38.6184 1.54311 39.667 2.50005 40.7767 3.51394C42.5211 5.10699 44.3225 6.75144 45.4503 7.45005C46.3531 7.73894 53.7225 10.1654 54.0892 11.7959C54.5531 13.4612 54.5878 13.764 54.5406 15.4751C55.0295 15.8181 55.31 16.3584 55.3003 16.9501L55.2697 18.9779C55.2572 19.8404 54.6545 20.5473 53.8031 20.6959L53.5378 20.7376C52.9961 20.8098 51.4739 20.8418 50.5656 20.8418H48.5711V19.6612H50.5656C51.71 19.6612 52.9975 19.6181 53.3781 19.5668L53.5989 19.5334C53.8836 19.482 54.085 19.2459 54.0892 18.9584L54.1197 16.9306C54.1239 16.6806 53.9864 16.4723 53.7545 16.3765L53.3781 16.2209L53.3503 15.7973C53.4059 13.8681 53.41 13.7556 52.9447 12.0848C52.5128 11.3015 46.9072 9.07783 45.0447 8.56116L44.8975 8.49727C43.6753 7.75977 41.7961 6.04449 39.9809 4.38616C38.9503 3.44588 37.9725 2.55283 37.1378 1.85561L2.81832 1.88061C2.59609 3.41394 2.48359 8.51255 2.42387 11.2515C2.40304 12.2306 2.38637 12.957 2.37248 13.2098C2.37387 13.6112 2.26276 14.0973 2.04332 14.6265C1.95443 14.8404 1.86554 15.0168 1.80165 15.1334V18.3487C1.87665 18.4751 2.03776 18.7154 2.31137 18.9529C2.88082 19.4473 3.62109 19.682 4.52387 19.6612H7.83637V20.8418H4.54054C4.48776 20.8431 4.43637 20.8445 4.38637 20.8445ZM14.5364 20.8418H41.8725V19.6612H14.5364V20.8418Z" fill="currentColor"/>
<path fill-rule="evenodd" clip-rule="evenodd" d="M42.0963 8.41104L42.0866 8.42215C41.7561 8.74021 41.5811 9.92354 41.5658 10.3763C41.5602 10.5388 41.6144 10.6818 41.7269 10.7971C41.8394 10.9152 41.9797 10.9735 42.1422 10.9735H43.4477C44.8436 10.9735 43.2102 8.46104 42.6894 8.28048C42.4783 8.20687 42.2574 8.25687 42.0963 8.41104Z" fill="currentColor"/>
<path fill-rule="evenodd" clip-rule="evenodd" d="M32.2188 11.7375H34.9423V10.9514H32.2188V11.7375Z" fill="currentColor"/>
<path fill-rule="evenodd" clip-rule="evenodd" d="M27.8779 11.0319H30.6029V10.2458H27.8779V11.0319Z" fill="currentColor"/>
<path fill-rule="evenodd" clip-rule="evenodd" d="M5.80176 11.5752H15.0157V10.7891H5.80176V11.5752Z" fill="currentColor"/>
<path fill-rule="evenodd" clip-rule="evenodd" d="M53.9644 14.3238C52.6158 13.5946 50.1088 12.2196 49.7422 11.853C49.5936 11.7044 49.5561 10.5821 49.5894 9.60571C51.5352 10.4224 53.3838 11.353 53.513 11.9266C53.8408 13.103 53.9477 13.5655 53.9644 14.321V14.3238Z" fill="currentColor"/>
<path fill-rule="evenodd" clip-rule="evenodd" d="M1.79199 13.1792C2.85588 12.9444 3.96838 12.168 4.00865 11.3028V4.23193H2.05588C1.93365 6.69443 1.86838 10.1069 1.82671 11.9555C1.8906 12.143 1.92393 12.2958 1.91838 12.4042C1.91838 12.6639 1.8656 12.9319 1.79199 13.1792Z" fill="currentColor"/>
<path fill-rule="evenodd" clip-rule="evenodd" d="M49.3199 20.8417C49.1199 21.5555 48.7394 22.193 48.2311 22.7014H48.2283C47.4588 23.4708 46.3949 23.9486 45.2213 23.9486C44.0463 23.9486 42.9824 23.4722 42.213 22.7014C41.7033 22.193 41.3227 21.5555 41.1241 20.8417H40.1963V19.5389C40.1963 18.1569 40.7616 16.8986 41.6713 15.9889C42.5824 15.0792 43.8394 14.5139 45.2213 14.5139C46.6005 14.5139 47.8574 15.0792 48.7686 15.9889L48.7699 15.9903L48.7713 15.9917C49.6811 16.9028 50.2463 18.1597 50.2463 19.5389V20.8417H49.3199ZM45.2213 17.0944C43.7866 17.0944 42.6227 18.2583 42.6227 19.693C42.6227 21.1292 43.7866 22.293 45.2213 22.293C46.6574 22.293 47.8213 21.1292 47.8213 19.693C47.8213 18.2583 46.6574 17.0944 45.2213 17.0944Z" fill="currentColor"/>
<path fill-rule="evenodd" clip-rule="evenodd" d="M11.1861 14.5139C12.5653 14.5139 13.8222 15.0792 14.7333 15.9889L14.7347 15.9903L14.7361 15.9917C15.6458 16.9028 16.2111 18.1597 16.2111 19.5389V20.8417H15.2847C15.0847 21.5555 14.7042 22.193 14.1944 22.7014H14.1931C13.4236 23.4708 12.3597 23.9486 11.1861 23.9486C10.0111 23.9486 8.94725 23.4722 8.1778 22.7014C7.66808 22.193 7.28752 21.5555 7.08891 20.8417H6.16113V19.5389C6.16113 18.1569 6.72502 16.8986 7.63613 15.9889C8.54586 15.0792 9.80419 14.5139 11.1861 14.5139ZM11.1861 17.0944C9.75002 17.0944 8.58613 18.2583 8.58613 19.693C8.58613 21.1292 9.75002 22.293 11.1861 22.293C12.6208 22.293 13.7847 21.1292 13.7847 19.693C13.7847 18.2583 12.6208 17.0944 11.1861 17.0944Z" fill="currentColor"/>
<path fill-rule="evenodd" clip-rule="evenodd" d="M45.2213 18.6155C44.6269 18.6155 44.1436 19.0988 44.1436 19.6932C44.1436 20.2891 44.6269 20.771 45.2213 20.771C45.8172 20.771 46.2991 20.2891 46.2991 19.6932C46.2991 19.0988 45.8172 18.6155 45.2213 18.6155Z" fill="currentColor"/>
<path fill-rule="evenodd" clip-rule="evenodd" d="M11.1862 18.6155C10.5904 18.6155 10.1084 19.0988 10.1084 19.6932C10.1084 20.2891 10.5904 20.771 11.1862 20.771C11.782 20.771 12.264 20.2891 12.264 19.6932C12.264 19.0988 11.782 18.6155 11.1862 18.6155Z" fill="currentColor"/>
</svg>
