<svg viewBox="0 0 68 25" fill="none" xmlns="http://www.w3.org/2000/svg">
<path fill-rule="evenodd" clip-rule="evenodd" d="M37.6796 4.87439C38.7514 5.20472 40.1837 5.88633 41.6721 6.68189C41.3203 7.14358 41.1043 7.67959 41.0412 8.26822H14.8419C12.9463 8.26822 11.7794 8.21071 10.7686 7.9733C10.8698 7.89908 10.969 7.82634 11.0662 7.75502C12.1174 6.98379 12.9398 6.3804 13.6574 5.90183C14.6014 5.27228 15.3329 4.88053 16.1171 4.62712C17.6269 4.13923 19.3816 4.1399 23.2731 4.14138C23.4945 4.14147 23.7229 4.14156 23.9585 4.14156C25.0051 4.14156 26.3739 4.14119 27.826 4.1408L28.1089 4.14072C29.6653 4.14031 31.2986 4.13989 32.7202 4.13989C34.396 4.13989 36.0796 4.38145 37.6796 4.87439Z" stroke="currentColor"/>
<path fill-rule="evenodd" clip-rule="evenodd" d="M8.06655 20.8316C4.90821 20.8316 1.59488 18.6982 1.45155 18.6049L1.12988 18.3949V13.5949L1.23155 13.4249C1.39321 13.1549 1.81488 12.3082 1.81488 11.6332L1.98655 8.31991L8.26321 4.01491L8.05655 2.62158L8.70655 2.48324C11.3199 1.92491 15.9182 1.53658 19.8866 1.53658L33.7049 1.53491C35.5599 1.69658 37.1349 1.98158 38.4449 2.38491C41.1166 3.20658 47.1316 6.81658 48.1366 7.42491C49.0849 7.53491 54.1166 8.14991 58.2366 9.20158C63.1149 10.4466 64.7699 12.4016 64.9649 13.2616L65.3899 20.2499L64.7966 20.3866C63.6432 20.6549 62.6999 20.8299 60.1899 20.8299H57.7016V19.4116H60.1899C62.1166 19.4116 63.0249 19.3099 63.8849 19.1366L63.8566 18.7532L63.5666 13.4566C63.4749 13.2482 62.1132 11.6549 57.8866 10.5749C53.4399 9.43991 47.8799 8.82158 47.8232 8.81658L47.5316 8.71658C47.4649 8.67491 40.7166 4.56658 38.0282 3.73991C36.8132 3.36491 35.3382 3.09991 33.6432 2.94991L19.8866 2.95491C16.3216 2.95491 12.2532 3.27158 9.65488 3.74158L9.79488 4.68158L3.36655 9.09324L3.23155 11.6699C3.23321 12.6082 2.76488 13.5766 2.54655 13.9782V17.6116C3.42821 18.1266 5.95155 19.4399 8.23321 19.4132L12.5516 19.4116V20.8299H8.25155C8.18988 20.8316 8.12821 20.8316 8.06655 20.8316ZM20.2949 20.8299H49.9582V19.4116H20.2949V20.8299Z" fill="currentColor"/>
<path fill-rule="evenodd" clip-rule="evenodd" d="M2.05859 12.8266H2.95193C4.10526 12.8266 5.63193 11.9532 5.67859 10.9566V10.0366H2.07859C2.07859 10.9799 2.06526 11.8649 2.05859 12.8266Z" fill="currentColor"/>
<path fill-rule="evenodd" clip-rule="evenodd" d="M59.5615 12.6433L60.9148 15.0717C61.3581 14.8183 62.0114 14.6533 62.5164 14.6533H62.5498C63.2548 14.6617 63.9565 14.6533 64.6615 14.6533L64.6348 14.54C64.5781 14.3033 63.9048 13.155 63.2114 12.6433C61.9948 12.6433 60.7781 12.6433 59.5615 12.6433Z" fill="currentColor"/>
<path fill-rule="evenodd" clip-rule="evenodd" d="M32.5186 11.6166H35.7886V10.6716H32.5186V11.6166Z" fill="currentColor"/>
<path fill-rule="evenodd" clip-rule="evenodd" d="M18.9199 11.6166H22.1899V10.6716H18.9199V11.6166Z" fill="currentColor"/>
<path fill-rule="evenodd" clip-rule="evenodd" d="M24.0518 16.5581V17.7681H46.2718L24.0518 16.5581Z" fill="currentColor"/>
<path fill-rule="evenodd" clip-rule="evenodd" d="M63.0615 18.0165H64.6565V17.0715H63.0615V18.0165Z" fill="currentColor"/>
<path fill-rule="evenodd" clip-rule="evenodd" d="M62.8102 16.7649H62.1085C61.8302 16.7649 61.6035 16.9916 61.6035 17.2699V17.8182C61.6035 18.0966 61.8302 18.3216 62.1085 18.3216H62.8102C63.0885 18.3216 63.3152 18.0966 63.3152 17.8182V17.2699C63.3152 16.9916 63.0885 16.7649 62.8102 16.7649Z" fill="currentColor"/>
<path fill-rule="evenodd" clip-rule="evenodd" d="M42.8517 7.1432L42.8383 7.15653C42.4433 7.54153 42.2333 8.01153 42.2133 8.55653C42.2067 8.75153 42.2717 8.92153 42.4083 9.06153C42.5433 9.20153 42.71 9.2732 42.9067 9.2732H44.4733C44.73 9.2732 44.95 9.14487 45.075 8.91987C45.2017 8.69654 45.1967 8.43987 45.0633 8.22153C44.7767 7.75153 44.3083 7.24487 43.5633 6.98487C43.3083 6.89653 43.045 6.95653 42.8517 7.1432Z" fill="currentColor"/>
<path fill-rule="evenodd" clip-rule="evenodd" d="M44.1328 9.98491C43.9878 9.98491 43.8445 9.91824 43.7512 9.79158L42.8745 8.58824C42.7212 8.37824 42.7678 8.08324 42.9778 7.92824C43.1878 7.77658 43.4845 7.81991 43.6378 8.03158L44.5145 9.23491C44.6678 9.44491 44.6211 9.73991 44.4111 9.89491C44.3278 9.95491 44.2295 9.98491 44.1328 9.98491Z" fill="currentColor"/>
<path fill-rule="evenodd" clip-rule="evenodd" d="M2.23633 18.2517V20.2483H7.43633V20.0917C5.26799 19.89 3.10633 18.755 2.23633 18.2517Z" fill="currentColor"/>
<path fill-rule="evenodd" clip-rule="evenodd" d="M16.4236 12.2898C18.0803 12.2898 19.587 12.9681 20.6803 14.0615H20.682L20.6836 14.0631C21.7753 15.1565 22.4536 16.6648 22.4536 18.3198V20.8298H20.2036C20.582 20.1831 20.797 19.4315 20.797 18.6298C20.797 16.2148 18.8386 14.2565 16.4236 14.2565C14.0086 14.2565 12.0503 16.2148 12.0503 18.6298C12.0503 19.4315 12.2653 20.1831 12.642 20.8298H10.3936V18.3198C10.3936 16.6648 11.072 15.1565 12.1636 14.0631L12.1653 14.0615H12.167C13.2603 12.9681 14.7686 12.2898 16.4236 12.2898Z" fill="currentColor"/>
<path fill-rule="evenodd" clip-rule="evenodd" d="M12.8134 15.0199C13.7368 14.0966 15.0134 13.5249 16.4234 13.5249C17.8318 13.5249 19.1084 14.0966 20.0318 15.0199L20.0351 15.0216C20.9584 15.9466 21.5301 17.2216 21.5301 18.6299C21.5301 20.0399 20.9584 21.3166 20.0351 22.2399H20.0318C19.1084 23.1632 17.8318 23.7366 16.4234 23.7366C15.0134 23.7366 13.7368 23.1649 12.8134 22.2399C11.8901 21.3166 11.3184 20.0399 11.3184 18.6299C11.3184 17.2216 11.8901 15.9466 12.8134 15.0216V15.0199ZM16.4234 15.0599C14.4518 15.0599 12.8534 16.6582 12.8534 18.6299C12.8534 20.6016 14.4518 22.1999 16.4234 22.1999C18.3951 22.1999 19.9934 20.6016 19.9934 18.6299C19.9934 16.6582 18.3951 15.0599 16.4234 15.0599Z" fill="currentColor"/>
<path fill-rule="evenodd" clip-rule="evenodd" d="M16.4249 19.925C17.1366 19.925 17.7182 19.3433 17.7182 18.63C17.7182 17.9183 17.1366 17.3367 16.4249 17.3367C15.7116 17.3367 15.1299 17.9183 15.1299 18.63C15.1299 19.3433 15.7116 19.925 16.4249 19.925Z" fill="currentColor"/>
<path fill-rule="evenodd" clip-rule="evenodd" d="M53.8298 12.2898C55.4865 12.2898 56.9931 12.9681 58.0865 14.0615H58.0881L58.0898 14.0631C59.1815 15.1565 59.8598 16.6648 59.8598 18.3198V20.8298H57.6098C57.9881 20.1831 58.2031 19.4315 58.2031 18.6298C58.2031 16.2148 56.2448 14.2565 53.8298 14.2565C51.4131 14.2565 49.4548 16.2148 49.4548 18.6298C49.4548 19.4315 49.6715 20.1831 50.0481 20.8298H47.7998V18.3198C47.7998 16.6648 48.4781 15.1565 49.5698 14.0631L49.5715 14.0615H49.5731C50.6665 12.9681 52.1748 12.2898 53.8298 12.2898Z" fill="currentColor"/>
<path fill-rule="evenodd" clip-rule="evenodd" d="M50.2196 15.0199C51.1429 14.0966 52.4196 13.5249 53.8296 13.5249C55.2379 13.5249 56.5146 14.0966 57.4379 15.0199L57.4413 15.0216C58.3629 15.9466 58.9363 17.2216 58.9363 18.6299C58.9363 20.0399 58.3646 21.3166 57.4413 22.2399H57.4379C56.5146 23.1632 55.2379 23.7366 53.8296 23.7366C52.4196 23.7366 51.1429 23.1649 50.2196 22.2399C49.2963 21.3166 48.7246 20.0399 48.7246 18.6299C48.7246 17.2216 49.2963 15.9466 50.2196 15.0216V15.0199ZM53.8296 15.0599C51.8579 15.0599 50.2596 16.6582 50.2596 18.6299C50.2596 20.6016 51.8579 22.1999 53.8296 22.1999C55.8013 22.1999 57.3996 20.6016 57.3996 18.6299C57.3996 16.6582 55.8013 15.0599 53.8296 15.0599Z" fill="currentColor"/>
<path fill-rule="evenodd" clip-rule="evenodd" d="M53.8294 19.925C54.5427 19.925 55.1244 19.3433 55.1244 18.63C55.1244 17.9183 54.5427 17.3367 53.8294 17.3367C53.1177 17.3367 52.5361 17.9183 52.5361 18.63C52.5361 19.3433 53.1177 19.925 53.8294 19.925Z" fill="currentColor"/>
</svg>
