<svg viewBox="0 0 256 256" fill="none" xmlns="http://www.w3.org/2000/svg">
<path d="M126.635 232.16C113.941 232.16 105.472 226.165 97.9093 220.885C92.5333 217.077 87.4986 213.461 81.5573 212.459C78.7286 211.972 75.8623 211.736 72.992 211.755C67.9573 211.755 63.9573 212.512 61.1093 213.088C59.296 213.408 57.7813 213.707 56.5866 213.707C55.3493 213.707 53.7813 213.365 53.1733 211.275C52.64 209.568 52.3093 207.947 51.9786 206.379C51.1253 202.432 50.4106 200.011 48.928 199.765C33.0453 197.344 23.5413 193.685 21.6853 189.355C21.536 188.885 21.3546 188.395 21.3546 188.021C21.248 186.699 22.208 185.6 23.5413 185.355C36.1386 183.275 47.456 176.565 57.0133 165.536C64.4373 156.971 68.0533 148.693 68.384 147.797C68.384 147.691 68.48 147.691 68.48 147.691C70.2933 143.947 70.6666 140.757 69.568 138.144C67.52 133.237 60.768 131.147 56.16 129.717C54.976 129.397 53.9733 129.013 53.12 128.725C49.1733 127.157 42.6026 123.819 43.4666 119.211C44.0853 115.883 48.5013 113.504 52.1173 113.504C53.12 113.504 53.9733 113.653 54.6773 114.037C58.7306 115.883 62.3893 116.832 65.5253 116.832C69.4293 116.832 71.2853 115.36 71.7547 114.891C71.6554 112.781 71.5309 110.672 71.3813 108.565C70.4213 94.0053 69.3333 75.936 73.9413 65.5787C87.7866 34.5707 117.173 32.0853 125.877 32.0853L129.675 32H130.208C138.901 32 168.288 34.4213 182.133 65.4827C186.795 75.84 185.653 93.9627 184.693 108.469L184.597 109.184C184.512 111.125 184.363 112.981 184.277 114.891C184.747 115.264 186.453 116.693 189.973 116.736C193.024 116.651 196.352 115.648 200.149 113.931C201.201 113.476 202.332 113.237 203.477 113.227C204.811 113.227 206.144 113.547 207.285 113.931H207.381C210.571 115.125 212.661 117.355 212.661 119.691C212.757 121.877 211.04 125.205 202.912 128.491C202.059 128.811 201.056 129.205 199.872 129.483C195.349 130.869 188.597 133.056 186.453 137.909C185.269 140.469 185.739 143.755 187.552 147.467C187.552 147.552 187.648 147.552 187.648 147.552C188.171 148.885 201.909 180.085 232.491 185.173C233.116 185.279 233.682 185.607 234.084 186.097C234.486 186.587 234.696 187.206 234.677 187.84C234.685 188.319 234.571 188.792 234.347 189.216C232.491 193.589 223.072 197.152 207.093 199.627C205.621 199.861 204.907 202.293 204.053 206.24C203.715 207.885 203.32 209.518 202.869 211.136C202.389 212.704 201.387 213.557 199.669 213.557H199.445C197.925 213.527 196.41 213.352 194.923 213.035C191.013 212.201 187.026 211.787 183.029 211.797C180.163 211.804 177.302 212.043 174.475 212.512C168.576 213.472 163.488 217.131 158.112 220.939C150.453 226.165 141.941 232.16 129.344 232.16H126.635Z" fill="black"/>
</svg>
